<svg xmlns="http://www.w3.org/2000/svg" width="536" height="550" viewBox="0 0 536 550">
  <g id="Group_22" data-name="Group 22" transform="translate(-691 -1347)">
    <g id="Rectangle_144" data-name="Rectangle 144" transform="translate(691 1347)" fill="none" stroke="#30363d" stroke-width="1">
      <rect width="536" height="550" rx="5" stroke="none"/>
      <rect x="0.5" y="0.5" width="535" height="549" rx="4.5" fill="none"/>
    </g>
    <g id="Home" transform="translate(742 1433.729)">
      <g id="Homepage-08" transform="translate(0 0)">
        <g id="Protection">
          <g id="Content" transform="translate(0)">
            <g id="Stacked-Group" transform="translate(0)">
              <g id="Group-2-Copy-3">
                <g id="Icons_ic-key" data-name="Icons/ic-key">
                  <g id="key">
                    <path id="Shape" d="M46.35,0A24.2,24.2,0,0,0,23.732,32.766L.608,55.892a1.763,1.763,0,0,0-.516,1.246V69.792a1.762,1.762,0,0,0,1.762,1.762H12.282a1.762,1.762,0,0,0,1.245-.515l3.514-3.509a1.762,1.762,0,0,0,.517-1.247V61.968h4.31a1.762,1.762,0,0,0,1.762-1.762V58.478h1.728a1.763,1.763,0,0,0,1.762-1.762V52.923h3.792a1.763,1.763,0,0,0,1.246-.516L37.766,46.8A24.187,24.187,0,1,0,46.35,0Zm0,44.844a20.5,20.5,0,0,1-8.293-1.732,1.762,1.762,0,0,0-1.939.353l-.016.015L30.183,49.4H25.358A1.762,1.762,0,0,0,23.6,51.161v3.792H21.869a1.763,1.763,0,0,0-1.762,1.762v1.727H15.8a1.763,1.763,0,0,0-1.762,1.762v5.347l-2.481,2.477H3.617V65.539L25.159,44a1.586,1.586,0,0,0-2.243-2.243l-19.3,19.3V57.868L27.053,34.43l.014-.015a1.762,1.762,0,0,0,.354-1.939A20.664,20.664,0,1,1,46.35,44.844Z" transform="translate(-0.092)" fill="#00bc7e" fill-rule="evenodd"/>
                    <path id="path7" d="M38.233,6.857a6.6,6.6,0,1,0,6.6,6.6A6.609,6.609,0,0,0,38.233,6.857Zm0,9.678a3.077,3.077,0,1,1,3.077-3.077A3.08,3.08,0,0,1,38.233,16.536Z" transform="translate(15.385 3.365)" fill="#00bc7e" fill-rule="evenodd"/>
                  </g>
                </g>
              </g>
            </g>
          </g>
        </g>
      </g>
    </g>
    <g id="Autres-pages" transform="translate(921 1417.665)">
      <g id="Microcrédit" transform="translate(0 0)">
        <g id="Microcrédit-">
          <g id="Stacked-Group-Copy-6" transform="translate(0 0)">
            <g id="Components_Cards_Bloc" data-name="Components/Cards/Bloc" transform="translate(0 0)">
              <g id="Group-3" transform="translate(0)">
                <g id="Ui_Icon_Bank" data-name="Ui/Icon/Bank" transform="translate(0 0)">
                  <g id="piggy-bank">
                    <path id="Shape-2" data-name="Shape" d="M13.724,21.979a4.427,4.427,0,1,0,4.427,4.427A4.432,4.432,0,0,0,13.724,21.979Zm0,6.324a1.9,1.9,0,1,1,1.9-1.9A1.9,1.9,0,0,1,13.724,28.3Z" transform="translate(4.518 10.784)" fill="#00bc7e" fill-rule="evenodd"/>
                    <path id="path7-2" data-name="path7" d="M75.832,41.618a7.547,7.547,0,0,0-1.943-5.053,8.856,8.856,0,0,0-.734-4.319,1.265,1.265,0,0,0-2.308,1.033,6.317,6.317,0,0,1,.428,1.386,7.55,7.55,0,0,0-3.031-.635,1.2,1.2,0,0,0-.211.043c-.142-.01-.277-.043-.421-.043a5.636,5.636,0,0,0-.907.091A27.62,27.62,0,0,0,54.769,20.772a15.8,15.8,0,1,0-30.805-4.961,15.867,15.867,0,0,0,.391,3.486c-1.128.369-2.13.725-2.922,1.037-5.546-2.215-9.158-2.977-12.387-2.618a1.7,1.7,0,0,0-1.5,1.412,1.72,1.72,0,0,0,.961,1.853c1.718.827,2.449,2.831,3.223,4.953.194.533.393,1.076.61,1.609-3.3,3.415-3.908,6.183-4.5,10.282H6.245C2.3,37.825.03,40.635.03,45.535V50.1c0,4.987,2.324,7.965,6.215,7.965h.78a21.337,21.337,0,0,0,4.03,6.405L9.309,68.834a5.145,5.145,0,0,0,4.779,7.057h8.525a2.612,2.612,0,0,0,2.435-1.648l.464-1.16a47.366,47.366,0,0,0,13.3,1.821,40.51,40.51,0,0,0,10.9-1.427l.005.019a3.344,3.344,0,0,0,3.222,2.394H60.55a5.515,5.515,0,0,0,5.2-7.351l-1.481-4.2a23.645,23.645,0,0,0,5.24-15.135c0-.038,0-.076,0-.114A7.592,7.592,0,0,0,75.832,41.618Zm-7.757,1.218-.214.016c-.072.005-.143.014-.249.03a3.136,3.136,0,0,1-3.1-3.738c.01-.053.024-.1.035-.157a3.187,3.187,0,0,1,.126-.409c.018-.046.034-.092.054-.138a3.194,3.194,0,0,1,.611-.908c.044-.046.092-.089.14-.132a3.213,3.213,0,0,1,.258-.214c.068-.051.138-.1.21-.145s.152-.085.229-.124.172-.092.264-.13l.011-.005a3.155,3.155,0,1,1,1.627,6.052ZM39.774,2.529A13.264,13.264,0,0,1,52.239,20.374l-.2.474a13.512,13.512,0,0,1-2.651,4.1c-.157-.073-.321-.12-.479-.19-.371-.161-.745-.306-1.123-.444-.326-.119-.65-.24-.98-.343-.358-.109-.72-.194-1.081-.282a19.914,19.914,0,0,0-1.99-.382c-.316-.044-.632-.1-.95-.129-.395-.037-.789-.044-1.186-.057-.324-.01-.646-.02-.97-.015-.379.006-.758.027-1.136.054-.359.027-.716.066-1.074.111-.342.044-.682.085-1.021.147-.484.087-.964.2-1.443.326-.209.054-.421.092-.629.153a19.6,19.6,0,0,0-2.055.734c-.154.065-.3.143-.457.211-.541.242-1.075.506-1.6.8-.075.042-.153.071-.226.114a13.14,13.14,0,0,1-1.181-1.193c-.051-.057-.095-.118-.144-.175a13.311,13.311,0,0,1-.925-1.219l-.065-.1a13.385,13.385,0,0,1-1.5-3.112l-.138-.424a13.24,13.24,0,0,1,12.733-17ZM22.612,73.361H14.087a2.617,2.617,0,0,1-2.43-3.588L13,66.419a31.23,31.23,0,0,0,10.075,5.863ZM62.986,72.1a2.948,2.948,0,0,1-2.437,1.261H52.938a.826.826,0,0,1-.8-.593l-.02-.066a28.307,28.307,0,0,0,10.211-6.243l1.032,2.923A2.946,2.946,0,0,1,62.986,72.1ZM60.9,64.269l-.03.033c-.511.519-1.057,1.009-1.625,1.484-.138.115-.282.224-.424.336-.421.335-.858.656-1.307.968-.195.135-.388.273-.588.4-.57.372-1.16.729-1.772,1.061-.207.113-.425.214-.636.321-.46.235-.93.462-1.41.674-.262.115-.524.229-.791.338q-.858.349-1.756.653c-.133.044-.259.1-.393.14l-.053.016a37.067,37.067,0,0,1-11.3,1.675,43.152,43.152,0,0,1-14.348-2.353c-.252-.089-.5-.175-.751-.267C16.5,67.018,11.139,62.3,9.1,56.383l-.293-.854H6.245c-3.047,0-3.686-2.955-3.686-5.435v-4.56c0-5.181,2.774-5.181,3.686-5.181H10.04l.152-1.09c.663-4.739,1-7.119,4.531-10.526l.654-.63-.387-.821c-.32-.679-.593-1.427-.883-2.22A14.487,14.487,0,0,0,11.59,20.2a32.506,32.506,0,0,1,9.367,2.669l.483.2.481-.2c.775-.324,1.907-.732,3.2-1.157A15.571,15.571,0,0,0,26,23.522c.025.046.052.091.077.138a15.581,15.581,0,0,0,.985,1.5c.063.087.124.176.19.261a15.957,15.957,0,0,0,1.079,1.248c.094.1.178.2.273.3.08.08.159.158.24.235a20.1,20.1,0,0,0-1.981,1.71A1.265,1.265,0,1,0,28.652,30.7a17.342,17.342,0,0,1,2.652-2.17l.2-.13c.386-.249.779-.479,1.179-.7.162-.087.326-.167.489-.249q.478-.239.965-.448c.129-.054.255-.113.386-.164q.689-.273,1.394-.487c.078-.024.158-.043.237-.066.459-.13.921-.245,1.388-.338l.133-.028a17.516,17.516,0,0,1,9.784.944l.091.037a17.316,17.316,0,0,1,5.711,3.8,1.265,1.265,0,1,0,1.788-1.788,19.912,19.912,0,0,0-3.39-2.707c.1-.118.19-.245.288-.366.172-.21.344-.42.506-.64s.307-.433.455-.654c.121-.182.238-.366.352-.553.149-.245.293-.492.429-.744.029-.054.065-.106.092-.161A25.122,25.122,0,0,1,64.378,35.041a5.687,5.687,0,0,0-.722.6c-.04.039-.081.078-.12.119A5.623,5.623,0,0,0,62.4,37.44c-.016.037-.034.071-.049.108a5.677,5.677,0,0,0-.3.954c-.013.059-.023.12-.033.181a5.744,5.744,0,0,0-.1,1.037,5.624,5.624,0,0,0,.111,1.1c.024.12.067.231.1.348a5.635,5.635,0,0,0,.211.679c.053.132.124.253.186.379a5.6,5.6,0,0,0,.3.555c.081.125.173.24.263.358a5.644,5.644,0,0,0,.385.465c.1.11.215.211.328.314a5.479,5.479,0,0,0,.459.378c.124.091.25.175.381.256a5.38,5.38,0,0,0,.525.285c.139.067.278.13.422.185a5.439,5.439,0,0,0,.587.182c.149.039.3.08.45.106.062.011.12.034.183.043.113,1.272.169,2.564.169,3.85A21.072,21.072,0,0,1,60.9,64.269Zm8.528-17.747c-.027-.469-.078-.932-.119-1.4a5.678,5.678,0,0,0,3.9-4.455,5.005,5.005,0,0,1-3.778,5.852Z" transform="translate(-0.03 -0.001)" fill="#00bc7e" fill-rule="evenodd"/>
                    <path id="Path" d="M23.7,22.108a1.265,1.265,0,1,0,1.549-2,8.075,8.075,0,1,1,10.407-.458,1.265,1.265,0,1,0,1.718,1.857,10.6,10.6,0,1,0-13.674.6Z" transform="translate(9.563 1.533)" fill="#00bc7e" fill-rule="evenodd"/>
                    <path id="path10" d="M32.718,45.816a29.911,29.911,0,0,1-15.465-2.453,1.265,1.265,0,0,0-1.023,2.313,32.013,32.013,0,0,0,13.3,2.81q1.666,0,3.41-.152a1.265,1.265,0,1,0-.219-2.52Z" transform="translate(7.55 21.225)" fill="#00bc7e" fill-rule="evenodd"/>
                  </g>
                </g>
              </g>
            </g>
          </g>
        </g>
      </g>
    </g>
    <g id="Autres-pages-2" data-name="Autres-pages" transform="translate(1106 1420.002)">
      <g id="Microcrédit-2" data-name="Microcrédit" transform="translate(0 0)">
        <g id="Microcrédit--2" data-name="Microcrédit-" transform="translate(0)">
          <g id="Stacked-Group-Copy-6-2" data-name="Stacked-Group-Copy-6" transform="translate(0 0)">
            <g id="Components_Cards_Bloc-Copy" data-name="Components/Cards/Bloc-Copy" transform="translate(0 0)">
              <g id="Group-3-2" data-name="Group-3" transform="translate(0)">
                <g id="Ui_Icon_Bank-2" data-name="Ui/Icon/Bank" transform="translate(0 0)">
                  <g id="price-tag-3">
                    <path id="Path-2" data-name="Path" d="M16.681,17.982a1.271,1.271,0,0,0,.9,2.163,1.234,1.234,0,0,0,.9-.379,1.26,1.26,0,0,0,0-1.783A1.275,1.275,0,0,0,16.681,17.982Z" transform="translate(7.377 8.643)" fill="#00bc7e" fill-rule="evenodd"/>
                    <path id="path7-3" data-name="path7" d="M14.264,39.627a1.266,1.266,0,1,0,1.783,0A1.26,1.26,0,0,0,14.264,39.627Z" transform="translate(6.188 19.264)" fill="#00bc7e" fill-rule="evenodd"/>
                    <path id="path9" d="M14.3,20.392a1.275,1.275,0,0,0,0,1.8,1.267,1.267,0,0,0,1.8-.013,1.266,1.266,0,0,0-1.8-1.783Z" transform="translate(6.205 9.825)" fill="#00bc7e" fill-rule="evenodd"/>
                    <path id="path11" d="M16.666,42.028a1.266,1.266,0,1,0,1.783,0A1.26,1.26,0,0,0,16.666,42.028Z" transform="translate(7.367 20.443)" fill="#00bc7e" fill-rule="evenodd"/>
                    <path id="path13" d="M21.428,44.485a1.27,1.27,0,0,0,.025,1.782,1.289,1.289,0,0,0,.885.367,1.247,1.247,0,0,0,.911-.392,1.26,1.26,0,0,0-.025-1.783A1.276,1.276,0,0,0,21.428,44.485Z" transform="translate(9.712 21.642)" fill="#00bc7e" fill-rule="evenodd"/>
                    <path id="path15" d="M19.075,15.573a1.263,1.263,0,0,0,.013,1.8,1.261,1.261,0,1,0-.013-1.8Z" transform="translate(8.55 7.46)" fill="#00bc7e" fill-rule="evenodd"/>
                    <path id="path17" d="M19.067,44.43a1.265,1.265,0,0,0,.885,2.163,1.3,1.3,0,0,0,.9-.367,1.275,1.275,0,0,0,0-1.8A1.26,1.26,0,0,0,19.067,44.43Z" transform="translate(8.545 21.621)" fill="#00bc7e" fill-rule="evenodd"/>
                    <path id="path19" d="M11.905,22.8a1.264,1.264,0,0,0,.013,1.8,1.261,1.261,0,1,0,1.771-1.8A1.262,1.262,0,0,0,11.905,22.8Z" transform="translate(5.031 11.008)" fill="#00bc7e" fill-rule="evenodd"/>
                    <path id="path21" d="M7.061,32.432a1.266,1.266,0,1,0,1.8,0A1.273,1.273,0,0,0,7.061,32.432Z" transform="translate(2.653 15.733)" fill="#00bc7e" fill-rule="evenodd"/>
                    <path id="path23" d="M7.129,27.621a1.275,1.275,0,0,0,0,1.8,1.3,1.3,0,0,0,.9.367,1.229,1.229,0,0,0,.885-.381,1.261,1.261,0,0,0-1.783-1.782Z" transform="translate(2.687 13.373)" fill="#00bc7e" fill-rule="evenodd"/>
                    <path id="path25" d="M4.736,30.031a1.275,1.275,0,0,0,0,1.8,1.3,1.3,0,0,0,.9.367,1.282,1.282,0,0,0,.9-.379,1.266,1.266,0,0,0-1.8-1.783Z" transform="translate(1.513 14.555)" fill="#00bc7e" fill-rule="evenodd"/>
                    <path id="path27" d="M21.468,13.163a1.275,1.275,0,0,0,0,1.8,1.267,1.267,0,0,0,1.8-.013,1.271,1.271,0,0,0-.013-1.783A1.257,1.257,0,0,0,21.468,13.163Z" transform="translate(9.723 6.278)" fill="#00bc7e" fill-rule="evenodd"/>
                    <path id="path29" d="M9.462,34.833a1.258,1.258,0,0,0,0,1.782,1.242,1.242,0,0,0,.9.367,1.262,1.262,0,1,0-.9-2.149Z" transform="translate(3.832 16.912)" fill="#00bc7e" fill-rule="evenodd"/>
                    <path id="path31" d="M11.863,37.235a1.258,1.258,0,0,0,0,1.782,1.242,1.242,0,0,0,.9.367,1.214,1.214,0,0,0,.885-.367,1.261,1.261,0,0,0-1.783-1.782Z" transform="translate(5.01 18.09)" fill="#00bc7e" fill-rule="evenodd"/>
                    <path id="path33" d="M9.511,25.21a1.272,1.272,0,0,0,.9,2.164,1.236,1.236,0,0,0,.9-.381,1.248,1.248,0,0,0-.013-1.783A1.262,1.262,0,0,0,9.511,25.21Z" transform="translate(3.859 12.19)" fill="#00bc7e" fill-rule="evenodd"/>
                    <path id="path35" d="M26.174,39.625a1.249,1.249,0,0,0,.025,1.783,1.229,1.229,0,0,0,.873.354,1.285,1.285,0,0,0,.911-.381,1.261,1.261,0,0,0-1.809-1.757Z" transform="translate(12.037 19.254)" fill="#00bc7e" fill-rule="evenodd"/>
                    <path id="path37" d="M38.011,27.466a1.266,1.266,0,0,0,1.809,1.771,1.263,1.263,0,0,0-.025-1.8A1.248,1.248,0,0,0,38.011,27.466Z" transform="translate(17.845 13.288)" fill="#00bc7e" fill-rule="evenodd"/>
                    <path id="path39" d="M33.276,32.328a1.271,1.271,0,0,0,.9,2.149,1.284,1.284,0,0,0,.911-.379,1.263,1.263,0,0,0-.025-1.8A1.25,1.25,0,0,0,33.276,32.328Z" transform="translate(15.522 15.674)" fill="#00bc7e" fill-rule="evenodd"/>
                    <path id="path41" d="M35.644,29.9a1.249,1.249,0,0,0,.025,1.783,1.229,1.229,0,0,0,.873.354,1.26,1.26,0,1,0-.9-2.138Z" transform="translate(16.683 14.483)" fill="#00bc7e" fill-rule="evenodd"/>
                    <path id="path43" d="M40.378,25.027a1.264,1.264,0,0,0,.025,1.8,1.268,1.268,0,0,0,1.783-.025,1.266,1.266,0,1,0-1.809-1.771Z" transform="translate(19.007 12.096)" fill="#00bc7e" fill-rule="evenodd"/>
                    <ellipse id="Oval" cx="1.491" cy="1.491" rx="1.491" ry="1.491" transform="translate(61.753 22.542)" fill="#00bc7e"/>
                    <path id="path46" d="M23.807,42.048a1.264,1.264,0,0,0,.025,1.8,1.228,1.228,0,0,0,.873.353,1.284,1.284,0,0,0,.911-.379,1.265,1.265,0,0,0-1.809-1.77Z" transform="translate(10.875 20.449)" fill="#00bc7e" fill-rule="evenodd"/>
                    <ellipse id="circle48" cx="1.491" cy="1.491" rx="1.491" ry="1.491" transform="translate(61.753 32.661)" fill="#00bc7e"/>
                    <ellipse id="circle50" cx="1.491" cy="1.491" rx="1.491" ry="1.491" transform="translate(61.753 27.601)" fill="#00bc7e"/>
                    <path id="path52" d="M28.543,37.186a1.264,1.264,0,0,0,.025,1.8,1.224,1.224,0,0,0,.873.354,1.284,1.284,0,0,0,.911-.379,1.266,1.266,0,1,0-1.809-1.771Z" transform="translate(13.199 18.063)" fill="#00bc7e" fill-rule="evenodd"/>
                    <path id="path54" d="M34.7,8.053a1.265,1.265,0,1,0-1.265,1.265A1.269,1.269,0,0,0,34.7,8.053Z" transform="translate(15.158 3.331)" fill="#00bc7e" fill-rule="evenodd"/>
                    <path id="path56" d="M23.85,10.753a1.271,1.271,0,0,0,.9,2.163,1.236,1.236,0,0,0,.9-.381,1.258,1.258,0,0,0,0-1.782A1.275,1.275,0,0,0,23.85,10.753Z" transform="translate(10.895 5.096)" fill="#00bc7e" fill-rule="evenodd"/>
                    <path id="path58" d="M26.245,8.342a1.266,1.266,0,1,0,1.8,1.783,1.248,1.248,0,0,0-.013-1.783A1.262,1.262,0,0,0,26.245,8.342Z" transform="translate(12.068 3.913)" fill="#00bc7e" fill-rule="evenodd"/>
                    <path id="path60" d="M30.044,6.788a1.265,1.265,0,1,0,1.265,1.265A1.26,1.26,0,0,0,30.044,6.788Z" transform="translate(13.492 3.331)" fill="#00bc7e" fill-rule="evenodd"/>
                    <path id="path62" d="M30.91,34.762a1.249,1.249,0,0,0,.025,1.783,1.224,1.224,0,0,0,.873.354,1.284,1.284,0,0,0,.911-.379,1.261,1.261,0,1,0-1.809-1.758Z" transform="translate(14.36 16.869)" fill="#00bc7e" fill-rule="evenodd"/>
                    <path id="Shape-3" data-name="Shape" d="M74.679.371a1.263,1.263,0,0,0-1.788,0L68.2,5.06H38.753L1.73,42.386a4.461,4.461,0,0,0,0,6.312L27.617,74.584a4.472,4.472,0,0,0,6.323-.013L69.989,37.548V6.848l4.689-4.689A1.265,1.265,0,0,0,74.679.371ZM67.461,36.521,32.14,72.8a1.936,1.936,0,0,1-2.735,0L3.519,46.91a1.933,1.933,0,0,1,0-2.738L39.806,7.589H65.672L59.559,13.7a6.343,6.343,0,1,0,1.788,1.788l6.113-6.113ZM59.872,18.973a3.795,3.795,0,1,1-3.795-3.795,3.75,3.75,0,0,1,1.625.381l-2.52,2.52a1.265,1.265,0,1,0,1.788,1.788l2.52-2.52A3.75,3.75,0,0,1,59.872,18.973Z" transform="translate(-0.423 0)" fill="#00bc7e" fill-rule="evenodd"/>
                  </g>
                </g>
              </g>
            </g>
          </g>
        </g>
      </g>
    </g>
    <g id="Group_23" data-name="Group 23" transform="translate(742 1564.801)">
      <g id="Home-2" data-name="Home" transform="translate(0 0)">
        <g id="Homepage-08-2" data-name="Homepage-08" transform="translate(0 0)">
          <g id="Header" transform="translate(0)">
            <g id="key-words" transform="translate(0 0)">
              <g id="Group-2-Copy-3-2" data-name="Group-2-Copy-3" transform="translate(0)">
                <g id="Ui_Icon_Get-money" data-name="Ui/Icon/Get-money" transform="translate(0)">
                  <g id="get-money">
                    <path id="Shape-4" data-name="Shape" d="M72.16,35.605c-2.128-3.018-4.284-3.066-9.684-.173L52.011,41.948c-1.551.84-4.734,1.092-7.822,1.146.549-1.163.3-2.551-.733-4.128a10.129,10.129,0,0,0-3.784-3.41,11.027,11.027,0,1,0-17.826-8.584,11.223,11.223,0,0,0,1.246,5.136c-.016-.011-.033-.021-.047-.033C18.688,28.729,11.408,28.257,8.5,28.206V24.466H0V64.047H8.5V60.339H24.273a48.8,48.8,0,0,0,7.423-.571l15.733-2.436a8.076,8.076,0,0,0,1.67-.2A7.307,7.307,0,0,0,53.106,55.1L71.5,40.51l.028-.023A3.663,3.663,0,0,0,72.16,35.605ZM28.12,34.2a8.49,8.49,0,1,1,8.712.358c-.15-.03-.3-.044-.455-.068s-.3-.051-.455-.068a10.613,10.613,0,0,0-1.189-.072H30A11.845,11.845,0,0,1,28.12,34.2ZM6.068,61.575H2.427V26.937H6.068V61.575Zm63.926-23L51.567,53.185l-.093.083a5.042,5.042,0,0,1-2.833,1.443,5.938,5.938,0,0,1-1.308.151l-16,2.463a46.247,46.247,0,0,1-7.057.544H8.5V30.682c2.691.057,9.352.5,13.088,3.366a13.5,13.5,0,0,0,5.637,2.5l.018.011.231.041.035,0c.4.069.8.125,1.208.161l.039,0c.413.036.828.057,1.246.057h4.733a8.374,8.374,0,0,1,1.983.239l.078.02a7.815,7.815,0,0,1,4.645,3.26c.511.775.712,1.419.541,1.722-.324.571-1.828.922-3.353.99-.5-.009-.949-.015-1.346-.015H25.487c-3.8,0-6.068,1.848-6.068,4.943a1.214,1.214,0,1,0,2.427,0c0-.612,0-2.472,3.641-2.472H37.252c.275.017.8.041,1.471.016l.646.011c5.7.108,11.037.078,13.845-1.445L63.673,37.58c5.005-2.678,5.509-1.96,6.514-.534A1.154,1.154,0,0,1,69.994,38.574Z" transform="translate(0 7.631)" fill="#00bc7e" fill-rule="evenodd"/>
                    <path id="path7-4" data-name="path7" d="M30.048,25.345a6.069,6.069,0,1,0-6.068,6.179A6.131,6.131,0,0,0,30.048,25.345Zm-6.068,3.707a3.708,3.708,0,1,1,3.641-3.707A3.679,3.679,0,0,1,23.979,29.052Z" transform="translate(8.789 9.258)" fill="#00bc7e" fill-rule="evenodd"/>
                    <path id="path9-2" data-name="path9" d="M37.79,22.343A11.037,11.037,0,0,0,48.712,11.221a10.925,10.925,0,1,0-21.846,0A11.037,11.037,0,0,0,37.79,22.343Zm0-19.773a8.584,8.584,0,0,1,8.5,8.651,8.5,8.5,0,1,1-16.991,0A8.584,8.584,0,0,1,37.79,2.57Z" transform="translate(13.184 -0.098)" fill="#00bc7e" fill-rule="evenodd"/>
                    <path id="path11-2" data-name="path11" d="M36.192,15.772A6.131,6.131,0,0,0,42.26,9.593a6.069,6.069,0,1,0-12.137,0A6.131,6.131,0,0,0,36.192,15.772Zm0-9.887a3.708,3.708,0,1,1-3.641,3.707A3.679,3.679,0,0,1,36.192,5.886Z" transform="translate(14.782 1.529)" fill="#00bc7e" fill-rule="evenodd"/>
                  </g>
                </g>
              </g>
            </g>
          </g>
        </g>
      </g>
      <g id="Autres-pages-3" data-name="Autres-pages" transform="translate(178 9.7)">
        <g id="Microcrédit-3" data-name="Microcrédit" transform="translate(0 0)">
          <g id="Microcrédit--3" data-name="Microcrédit-" transform="translate(0 0)">
            <g id="Stacked-Group-Copy-4" transform="translate(0 0)">
              <g id="Components_Cards_Bloc-2" data-name="Components/Cards/Bloc" transform="translate(0 0)">
                <g id="Group-3-3" data-name="Group-3" transform="translate(0)">
                  <g id="Ui_Icon_Bank-3" data-name="Ui/Icon/Bank" transform="translate(0 0)">
                    <g id="record">
                      <path id="Shape-5" data-name="Shape" d="M74.993,15.3H63.243V10.242H31.233L27.438.123H0V62.1H63.243V61Zm-3.263,2.53L63.243,50.838V17.831ZM2.53,2.653H25.685L29.48,12.772H60.713v46.8H2.53Z" transform="translate(0 -0.123)" fill="#00bc7e" fill-rule="evenodd"/>
                      <path id="path7-5" data-name="path7" d="M5.091,42.853H35.447V23.881H5.091ZM7.621,26.41h25.3V40.324H7.621Z" transform="translate(2.498 11.535)" fill="#00bc7e" fill-rule="evenodd"/>
                      <path id="Path-3" data-name="Path" d="M21.133,31.517H9.75a1.265,1.265,0,0,0,0,2.53H21.133a1.265,1.265,0,0,0,0-2.53Z" transform="translate(4.164 15.282)" fill="#00bc7e" fill-rule="evenodd"/>
                      <path id="path10-2" data-name="path10" d="M9.75,29.8h5.059a1.265,1.265,0,0,0,0-2.53H9.75a1.265,1.265,0,1,0,0,2.53Z" transform="translate(4.164 13.201)" fill="#00bc7e" fill-rule="evenodd"/>
                      <path id="path12" d="M22.461,27.275h-2.53a1.265,1.265,0,1,0,0,2.53h2.53a1.265,1.265,0,0,0,0-2.53Z" transform="translate(9.16 13.201)" fill="#00bc7e" fill-rule="evenodd"/>
                      <path id="path14" d="M19.882,31.879a1.3,1.3,0,0,0-.367.9,1.248,1.248,0,0,0,.367.885,1.265,1.265,0,0,0,.9.379,1.268,1.268,0,1,0-.9-2.163Z" transform="translate(9.576 15.288)" fill="#00bc7e" fill-rule="evenodd"/>
                      <path id="path16" d="M16.538,29.8A1.253,1.253,0,0,0,17.8,28.534a1.3,1.3,0,0,0-.367-.9,1.27,1.27,0,1,0-.9,2.163Z" transform="translate(7.495 13.206)" fill="#00bc7e" fill-rule="evenodd"/>
                    </g>
                  </g>
                </g>
              </g>
            </g>
          </g>
        </g>
      </g>
      <g id="Home-3" data-name="Home" transform="translate(359 10.262)">
        <g id="Homepage-08-3" data-name="Homepage-08" transform="translate(0 0)">
          <g id="Protection-2" data-name="Protection">
            <g id="Content-2" data-name="Content">
              <g id="Stacked-Group-2" data-name="Stacked-Group" transform="translate(0 0)">
                <g id="Group-2-Copy-2" transform="translate(0 0)">
                  <g id="Icons_ic-card" data-name="Icons/ic-card">
                    <g id="credit-card-_1_" data-name="credit-card-(1)">
                      <path id="Shape-6" data-name="Shape" d="M78.141,19.385H69.466V7.139A7.126,7.126,0,0,0,62.348.021H7.118A7.126,7.126,0,0,0,0,7.139V39.076a7.126,7.126,0,0,0,7.118,7.118h8.676V58.44a7.126,7.126,0,0,0,7.118,7.118h55.23a7.126,7.126,0,0,0,7.118-7.118V26.5A7.126,7.126,0,0,0,78.141,19.385ZM4.067,7.139A3.054,3.054,0,0,1,7.118,4.089h55.23A3.054,3.054,0,0,1,65.4,7.139V9.979H4.067ZM15.794,26.5V42.126H7.118a3.054,3.054,0,0,1-3.051-3.051V23.465H16.476A7.072,7.072,0,0,0,15.794,26.5ZM4.067,19.4V14.046H65.4v5.339H22.912c-.138,0-.274,0-.409.013ZM78.141,61.491H22.912a3.054,3.054,0,0,1-3.051-3.051V26.5a3.053,3.053,0,0,1,2.8-3.038H67.431a2.026,2.026,0,0,0,.222-.013H78.141A3.054,3.054,0,0,1,81.192,26.5V58.44h0A3.054,3.054,0,0,1,78.141,61.491Z" transform="translate(0 -0.021)" fill="#00bc7e" fill-rule="evenodd"/>
                      <path id="path7-6" data-name="path7" d="M42.345,19.168a9.754,9.754,0,0,0-6.119,2.152,9.8,9.8,0,1,0,0,15.3,9.8,9.8,0,1,0,6.119-17.454Zm-8.7,14.309a5.737,5.737,0,1,1,0-9.012,9.769,9.769,0,0,0,0,9.012Zm8.7,1.23a5.736,5.736,0,1,1,5.736-5.736A5.743,5.743,0,0,1,42.345,34.707Z" transform="translate(14.307 13.48)" fill="#00bc7e" fill-rule="evenodd"/>
                    </g>
                  </g>
                </g>
              </g>
            </g>
          </g>
        </g>
      </g>
    </g>
    <g id="Home-4" data-name="Home" transform="translate(742 1717.941)">
      <g id="Homepage-08-4" data-name="Homepage-08" transform="translate(0 0)">
        <g id="Header-2" data-name="Header" transform="translate(0)">
          <g id="key-words-2" data-name="key-words">
            <g id="Group-2-Copy-4" transform="translate(0 0)">
              <g id="Ui_Icon_Get-money-2" data-name="Ui/Icon/Get-money" transform="translate(0 0)">
                <g id="siren" transform="translate(0 0)">
                  <path id="Combined-Shape" d="M34.74,25.462A1.442,1.442,0,1,1,33.3,24.03,1.438,1.438,0,0,1,34.74,25.462Zm3.207,16.929a1.442,1.442,0,0,1-2.837.512L32.994,31.339a1.442,1.442,0,0,1,2.837-.512Z" transform="translate(13.707 10.339)" fill="#00bc7e" fill-rule="evenodd"/>
                  <path id="Fill-3" d="M58.56,58.982H9.537v-4.3a1.439,1.439,0,0,1,1.442-1.432H57.118a1.439,1.439,0,0,1,1.442,1.432ZM20.234,24.764a7.191,7.191,0,0,1,7.093-5.88H40.771a7.193,7.193,0,0,1,7.093,5.875l4.6,25.631H15.631ZM57.118,50.39H55.4L50.7,24.252a10.071,10.071,0,0,0-9.931-8.231H27.327A10.069,10.069,0,0,0,17.4,24.256L12.7,50.39H10.979a4.316,4.316,0,0,0-4.326,4.3v5.728A1.437,1.437,0,0,0,8.1,61.847H60a1.437,1.437,0,0,0,1.442-1.432V54.686a4.316,4.316,0,0,0-4.326-4.3Z" transform="translate(2.863 6.893)" fill="#00bc7e" fill-rule="evenodd"/>
                  <path id="path8" d="M72.381,34.37a1.432,1.432,0,1,1,0,2.864h-12.4a1.432,1.432,0,1,1,0-2.864ZM0,35.8A1.437,1.437,0,0,1,1.442,34.37h12.4a1.432,1.432,0,1,1,0,2.864H1.442A1.437,1.437,0,0,1,0,35.8ZM62.4,10.486a1.425,1.425,0,0,1,0,2.025l-8.157,8.1a1.449,1.449,0,0,1-2.039,0,1.425,1.425,0,0,1,0-2.025l8.157-8.1A1.449,1.449,0,0,1,62.4,10.486Zm-50.979,0a1.449,1.449,0,0,1,2.039,0l8.157,8.1a1.425,1.425,0,0,1,0,2.025,1.449,1.449,0,0,1-2.039,0l-8.157-8.1A1.425,1.425,0,0,1,11.422,10.486Zm26.931,2.4a1.442,1.442,0,0,1-2.884,0V1.432a1.442,1.442,0,0,1,2.884,0Z" transform="translate(0 0)" fill="#00bc7e" fill-rule="evenodd"/>
                </g>
              </g>
            </g>
          </g>
        </g>
      </g>
    </g>
    <g id="Home-5" data-name="Home" transform="translate(926 1716.963)">
      <g id="Homepage-08-5" data-name="Homepage-08" transform="translate(0 0)">
        <g id="Comment-ça-marche-_" data-name="Comment-ça-marche-?" transform="translate(0 0)">
          <g id="Group" transform="translate(0 0)">
            <g id="Stacked-Group-3" data-name="Stacked-Group" transform="translate(0 0)">
              <g id="Components_Cards_List-Copy-2" data-name="Components/Cards/List-Copy-2">
                <g id="Group-3-Copy-4">
                  <g id="Icone">
                    <g id="Ui_Icon_Get-money-3" data-name="Ui/Icon/Get-money">
                      <g id="justice-scale">
                        <path id="Shape-7" data-name="Shape" d="M74.823,15.075l-5.3-9.108V1.256s0-.006,0-.009a1.2,1.2,0,0,0-.052-.254,1.27,1.27,0,0,0-.052-.235s0-.006,0-.01a1.282,1.282,0,0,0-.1-.143A1.274,1.274,0,0,0,69.143.36a1.254,1.254,0,0,0-.206-.138,1.267,1.267,0,0,0-.2-.126,1.321,1.321,0,0,0-.3-.06A1.193,1.193,0,0,0,68.263,0l-.01,0a1.228,1.228,0,0,0-.219.044,1.276,1.276,0,0,0-.272.059l-.01,0L44.609,10.253c-.037-.069-.08-.133-.119-.2s-.067-.11-.1-.166a7.544,7.544,0,0,0-.673-.932c-.029-.034-.061-.064-.09-.1a7.748,7.748,0,0,0-.847-.83c-.009-.006-.015-.015-.024-.021a7.743,7.743,0,0,0-.98-.676c-.048-.028-.094-.059-.142-.085a7.685,7.685,0,0,0-1.043-.479c-.066-.025-.13-.049-.2-.072A7.42,7.42,0,0,0,39.273,6.4c-.029-.005-.056-.016-.085-.021V2.511a1.264,1.264,0,0,0-2.528,0V6.389a7.551,7.551,0,0,0-6.321,7.417,7.437,7.437,0,0,0,.292,2.046L7.116,25.19s-.006.005-.01.006a1.283,1.283,0,0,0-.327.212,1.024,1.024,0,0,0-.086.058,1.32,1.32,0,0,0-.167.243,1.279,1.279,0,0,0-.1.154,1.171,1.171,0,0,0-.027.119,1.227,1.227,0,0,0-.073.363s0,.006,0,.01v4.969l-5.3,9.108a7.472,7.472,0,0,0-1,3.381A.855.855,0,0,0,0,43.926c0,.02.01.038.011.058a7.538,7.538,0,0,0,7.573,7.73,7.507,7.507,0,0,0,6.56-3.76,7.438,7.438,0,0,0,1.013-3.97.472.472,0,0,0,.013-.058,1.117,1.117,0,0,0-.023-.113,7.476,7.476,0,0,0-1-3.381l-5.3-9.108V27.206L31.72,18.123a7.616,7.616,0,0,0,1.215,1.339l.011.01a7.623,7.623,0,0,0,1.431.984c.064.034.133.063.2.1.18.088.36.171.547.245.1.039.195.073.293.107.166.058.334.11.506.157.1.028.206.055.311.079.142.033.284.058.429.083V51.455H29.076V57.73A11.349,11.349,0,0,0,17.7,69.025V70.28H58.151V69.025a11.349,11.349,0,0,0-11.377-11.3V51.455H39.189V21.232c.029-.005.056-.016.085-.023a7.613,7.613,0,0,0,1.121-.291c.067-.023.131-.046.2-.072a7.63,7.63,0,0,0,1.044-.479c.048-.026.094-.056.14-.084a7.542,7.542,0,0,0,.981-.676c.009-.006.015-.015.024-.021a7.635,7.635,0,0,0,.847-.83c.029-.034.061-.064.09-.1a7.679,7.679,0,0,0,.673-.932c.034-.055.068-.109.1-.166a7.438,7.438,0,0,0,.5-1.024c.024-.061.047-.124.07-.187a7.383,7.383,0,0,0,.316-1.128c.01-.049.014-.1.023-.151a7.844,7.844,0,0,0,.113-1.264,7.463,7.463,0,0,0-.1-1.16L67,3.182V5.967l-5.3,9.106a7.4,7.4,0,0,0,0,7.521,7.6,7.6,0,0,0,13.119,0A7.4,7.4,0,0,0,74.823,15.075ZM7.585,49.2a5.009,5.009,0,0,1-4.943-4.022h9.886A5.009,5.009,0,0,1,7.585,49.2Zm4.8-6.532h-9.6a5.05,5.05,0,0,1,.431-.984l4.37-7.517,4.37,7.516A5.094,5.094,0,0,1,12.386,42.671Zm43.146,25.1H20.316a8.841,8.841,0,0,1,8.759-7.53h17.7A8.842,8.842,0,0,1,55.532,67.771ZM44.245,57.731H31.6V53.966H44.245ZM68.263,8.814l4.37,7.515a5.109,5.109,0,0,1,.517,1.241H63.376a5.059,5.059,0,0,1,.517-1.241Zm0,15.032a5.044,5.044,0,0,1-4.891-3.765h9.782a5.044,5.044,0,0,1-4.891,3.765Z" transform="translate(0 -0.001)" fill="#00bc7e" fill-rule="evenodd"/>
                        <path id="Path-4" data-name="Path" d="M26.518,16.35a6.409,6.409,0,0,1-.919-1.372l-.2-.423a6.229,6.229,0,0,1-.461-2.335A6.328,6.328,0,0,1,37.06,9.728l.046.122.155.487a7.388,7.388,0,0,1,.227.916,5.66,5.66,0,0,1,.093.967A6.279,6.279,0,0,1,30.129,18.4c-.1-.017-.175-.034-.31-.065a6.218,6.218,0,0,1-.831-.257l-.023-.008-.015-.005c-.074-.025-.135-.047-.21-.079a6.334,6.334,0,0,1-.89-.479c-.115-.075-.2-.138-.354-.254l-.03-.023c-.13-.1-.256-.2-.4-.328h0a5.929,5.929,0,0,1-.458-.444c-.055-.064-.055-.064-.082-.1Z" transform="translate(6.666 1.585)" fill="none" stroke="#00bc7e" stroke-width="2" fill-rule="evenodd"/>
                      </g>
                    </g>
                  </g>
                </g>
              </g>
            </g>
          </g>
        </g>
      </g>
    </g>
    <g id="Home-6" data-name="Home" transform="translate(1111 1717.864)">
      <g id="Homepage-08-6" data-name="Homepage-08" transform="translate(0 0)">
        <g id="Comment-ça-marche-_2" data-name="Comment-ça-marche-?" transform="translate(0 0)">
          <g id="Group-2" data-name="Group" transform="translate(0 0)">
            <g id="Stacked-Group-4" data-name="Stacked-Group" transform="translate(0 0)">
              <g id="Components_Cards_List-Copy" data-name="Components/Cards/List-Copy">
                <g id="Group-3-Copy-4-2" data-name="Group-3-Copy-4" transform="translate(0 0)">
                  <g id="Icone-2" data-name="Icone" transform="translate(0 0)">
                    <g id="Ui_Icon_Get-money-4" data-name="Ui/Icon/Get-money" transform="translate(0 0)">
                      <g id="time-passing">
                        <path id="Combined-Shape-2" data-name="Combined-Shape" d="M1.137,35.1A1.132,1.132,0,0,1,0,33.963,33.936,33.936,0,0,1,55.477,7.71V1.132a1.132,1.132,0,1,1,2.264,0V11.321H56.733a1.084,1.084,0,0,1-.218,0H47.553a1.132,1.132,0,1,1,0-2.264h6A31.684,31.684,0,0,0,2.269,33.963,1.132,1.132,0,0,1,1.137,35.1ZM33.968,9.057A24.906,24.906,0,1,1,9.062,33.963,24.934,24.934,0,0,1,33.968,9.057Zm0,47.549A22.642,22.642,0,1,0,11.326,33.963,22.668,22.668,0,0,0,33.968,56.606ZM35.1,28.464a4.519,4.519,0,0,1-1.132,8.9,4.469,4.469,0,0,1-2.286-.642l-9.367,9.367a1.132,1.132,0,0,1-1.6-1.6l9.367-9.367a4.469,4.469,0,0,1-.642-2.286,4.524,4.524,0,0,1,3.4-4.368V22.642a1.132,1.132,0,0,1,2.264,0ZM33.968,35.1A2.264,2.264,0,1,0,31.7,32.831,2.267,2.267,0,0,0,33.968,35.1Z" transform="translate(-0.005)" fill="#00bc7e" fill-rule="evenodd"/>
                        <path id="path7-7" data-name="path7" d="M13.435,53.812a1.127,1.127,0,0,1,1.585-.238,1.147,1.147,0,0,1,.238,1.584,1.12,1.12,0,0,1-.917.453,1.1,1.1,0,0,1-.668-.215A1.126,1.126,0,0,1,13.435,53.812ZM8.16,46.578a1.141,1.141,0,0,1-.26,1.586,1.117,1.117,0,0,1-.657.214,1.136,1.136,0,1,1,.917-1.8Zm.44,2.468a1.135,1.135,0,1,1,.759,1.981,1.091,1.091,0,0,1-.849-.386A1.128,1.128,0,0,1,8.6,49.046Zm3.9,2.434v.012a1.128,1.128,0,0,1,.068,1.6,1.159,1.159,0,0,1-.838.362,1.133,1.133,0,1,1,.77-1.971Zm-6.1-7.653a1.132,1.132,0,0,1-.43,1.54,1.1,1.1,0,0,1-.555.147,1.128,1.128,0,1,1,.974-1.687ZM66.7,30.559a1.157,1.157,0,1,1,.045,0ZM1.4,32.676H1.277a1.074,1.074,0,1,1,.125,0ZM2.035,36a.852.852,0,0,1-.238.023A1.128,1.128,0,0,1,1.571,33.8,1.128,1.128,0,0,1,2.035,36ZM4.911,40.9a1.139,1.139,0,0,1-.577,1.493,1.08,1.08,0,0,1-.453.1,1.151,1.151,0,0,1-1.042-.68A1.133,1.133,0,0,1,4.911,40.9ZM3.744,37.838a1.137,1.137,0,0,1-.725,1.426,1.245,1.245,0,0,1-.351.045,1.13,1.13,0,0,1-.34-2.208A1.119,1.119,0,0,1,3.744,37.838ZM33.327,59.847A1.136,1.136,0,0,1,34.436,61,1.124,1.124,0,0,1,33.3,62.111h-.023a1.132,1.132,0,1,1,.045-2.264ZM58.992,47.563a1.13,1.13,0,1,1,.894,1.823,1.167,1.167,0,0,1-.7-.238A1.133,1.133,0,0,1,58.992,47.563Zm-7.133,6.725a1.135,1.135,0,1,1,.645,2.06,1.115,1.115,0,0,1-.928-.487A1.128,1.128,0,0,1,51.859,54.288Zm2.6-1.994a1.133,1.133,0,1,1-.125,1.6A1.132,1.132,0,0,1,54.464,52.294Zm7.958-7.789a1.133,1.133,0,0,1,.362,1.561,1.12,1.12,0,0,1-.962.533,1.167,1.167,0,0,1-.6-.17,1.134,1.134,0,1,1,1.2-1.925Zm-5.569,5.537a1.129,1.129,0,1,1,1.63,1.561,1.123,1.123,0,0,1-1.6.035A1.118,1.118,0,0,1,56.852,50.043ZM66.6,31.679a1.133,1.133,0,0,1-.158,2.254.8.8,0,0,1-.159-.011,1.127,1.127,0,0,1-.962-1.279A1.143,1.143,0,0,1,66.6,31.679Zm-.531,3.351a1.14,1.14,0,0,1-.283,2.242,1.064,1.064,0,0,1-.272-.034,1.138,1.138,0,0,1,.555-2.208ZM17.748,55.4a1.136,1.136,0,0,1-.589,2.107,1.086,1.086,0,0,1-.577-.158A1.135,1.135,0,0,1,17.748,55.4ZM65.184,38.314a1.135,1.135,0,0,1-.4,2.2,1.152,1.152,0,0,1-.385-.069,1.134,1.134,0,0,1,.781-2.128Zm-1.222,3.17a1.134,1.134,0,0,1-.5,2.152,1.106,1.106,0,0,1-.5-.114,1.134,1.134,0,1,1,1-2.038ZM30.055,59.62a1.131,1.131,0,0,1-.136,2.253h-.136v-.012a1.128,1.128,0,1,1,.272-2.24Zm-6.374-1.46a1.128,1.128,0,0,1-.362,2.2,1.424,1.424,0,0,1-.374-.057,1.131,1.131,0,0,1,.736-2.14Zm3.147.894a1.129,1.129,0,0,1-.249,2.23,1.014,1.014,0,0,1-.26-.023,1.133,1.133,0,1,1,.509-2.208Zm-6.181-2.117a1.129,1.129,0,0,1-.487,2.15,1.179,1.179,0,0,1-.475-.1,1.134,1.134,0,0,1-.543-1.506A1.121,1.121,0,0,1,20.647,56.937Zm19.2,2.366a1.132,1.132,0,0,1,1.325.906,1.146,1.146,0,0,1-.906,1.325,1.12,1.12,0,0,1-.2.012,1.131,1.131,0,0,1-.215-2.243Zm3.181-.77a1.13,1.13,0,1,1,.657,2.162,1.187,1.187,0,0,1-.328.045,1.137,1.137,0,0,1-1.087-.8A1.118,1.118,0,0,1,43.029,58.533Zm3.091-1.109a1.135,1.135,0,0,1,.872,2.1,1.237,1.237,0,0,1-.442.078,1.129,1.129,0,0,1-.43-2.174ZM36.6,59.744a1.14,1.14,0,0,1,1.223,1.042A1.113,1.113,0,0,1,36.79,62v.011H36.7a1.134,1.134,0,0,1-.1-2.264Zm12.476-3.735a1.127,1.127,0,1,1,1.076,1.981,1.022,1.022,0,0,1-.532.147,1.135,1.135,0,0,1-.543-2.128Z" transform="translate(0.025 5.804)" fill="#00bc7e" fill-rule="evenodd"/>
                      </g>
                    </g>
                  </g>
                </g>
              </g>
            </g>
          </g>
        </g>
      </g>
    </g>
  </g>
</svg>
