<svg xmlns="http://www.w3.org/2000/svg" width="537" height="268" viewBox="0 0 537 268">
  <g id="Group_31" data-name="Group 31" transform="translate(-138 -1344)">
    <g id="Group_28" data-name="Group 28">
      <g id="Rectangle_145" data-name="Rectangle 145" transform="translate(138 1344)" fill="none" stroke="#30363d" stroke-width="1">
        <rect width="537" height="268" rx="5" stroke="none"/>
        <rect x="0.5" y="0.5" width="536" height="267" rx="4.5" fill="none"/>
      </g>
    </g>
    <g id="Group_30" data-name="Group 30">
      <path id="Icon_awesome-home" data-name="Icon awesome-home" d="M17.522,9.516,6,19.006V29.248a1,1,0,0,0,1,1l7-.018a1,1,0,0,0,.995-1V23.249a1,1,0,0,1,1-1h4a1,1,0,0,1,1,1v5.977a1,1,0,0,0,1,1l7,.019a1,1,0,0,0,1-1V19L18.478,9.516A.762.762,0,0,0,17.522,9.516Zm18.2,6.45L30.5,11.66V3a.75.75,0,0,0-.75-.75h-3.5A.75.75,0,0,0,25.5,3V7.541l-5.6-4.6a3,3,0,0,0-3.812,0L.271,15.966a.75.75,0,0,0-.1,1.056L1.765,18.96a.75.75,0,0,0,1.057.1l14.7-12.108a.762.762,0,0,1,.956,0l14.7,12.108a.75.75,0,0,0,1.056-.1l1.594-1.937a.75.75,0,0,0-.106-1.058Z" transform="translate(191.197 1472.949)" fill="#d32d2d"/>
      <path id="Icon_ionic-ios-settings" data-name="Icon ionic-ios-settings" d="M31.707,19.328a3.816,3.816,0,0,1,2.448-3.56,15.126,15.126,0,0,0-1.83-4.41,3.867,3.867,0,0,1-1.552.332A3.808,3.808,0,0,1,27.29,6.33a15.08,15.08,0,0,0-4.4-1.83,3.813,3.813,0,0,1-7.12,0,15.126,15.126,0,0,0-4.41,1.83,3.808,3.808,0,0,1-3.483,5.36,3.741,3.741,0,0,1-1.552-.332A15.461,15.461,0,0,0,4.5,15.775a3.815,3.815,0,0,1,.008,7.12,15.126,15.126,0,0,0,1.83,4.41,3.809,3.809,0,0,1,5.028,5.028,15.214,15.214,0,0,0,4.41,1.83,3.806,3.806,0,0,1,7.1,0,15.126,15.126,0,0,0,4.41-1.83,3.813,3.813,0,0,1,5.028-5.028,15.214,15.214,0,0,0,1.83-4.41A3.834,3.834,0,0,1,31.707,19.328ZM19.4,25.5a6.178,6.178,0,1,1,6.178-6.178A6.176,6.176,0,0,1,19.4,25.5Z" transform="translate(588.868 1532.87)" fill="#d32d2d"/>
      <path id="Icon_simple-micro-dot-blog" data-name="Icon simple-micro-dot-blog" d="M25.695,21.252a5.738,5.738,0,0,0-.36,7.084c.36.48-.12.48-.36.48a7.2,7.2,0,0,1-4.8-3.242c-.24-.12-.36-.24-.6-.12a14.935,14.935,0,0,1-5.163.72C6.484,26.175,0,20.412,0,13.208S6.484,0,14.408,0,28.816,5.883,28.816,13.208A12.483,12.483,0,0,1,25.695,21.252ZM14.408,16.81l3.842,2.642a.48.48,0,0,0,.72-.48L17.53,14.408l3.722-2.882a.48.48,0,0,0-.24-.72H16.329L14.768,6.244a.48.48,0,0,0-.72,0l-1.561,4.563h-4.8a.48.48,0,0,0-.12.84l3.6,2.882-1.2,4.443a.48.48,0,0,0,.6.48Z" transform="translate(192.783 1400.592)" fill="#d32d2d"/>
      <path id="Icon_ionic-ios-arrow-round-forward" data-name="Icon ionic-ios-arrow-round-forward" d="M27.732,11.649a1.413,1.413,0,0,0-.011,1.99L34.3,20.226H9.27a1.406,1.406,0,0,0,0,2.812H34.286L27.71,29.624a1.423,1.423,0,0,0,.011,1.99A1.4,1.4,0,0,0,29.7,31.6l8.912-8.977h0a1.579,1.579,0,0,0,.292-.443,1.342,1.342,0,0,0,.108-.541,1.41,1.41,0,0,0-.4-.984L29.7,11.682A1.378,1.378,0,0,0,27.732,11.649Z" transform="translate(385.952 1533.362)" fill="#d32d2d"/>
      <g id="Icon_ionic-ios-cart" data-name="Icon ionic-ios-cart" transform="translate(391.453 1466.799)">
        <path id="Path_96" data-name="Path 96" d="M13.338,30.013a1.888,1.888,0,1,1-1.888-1.888A1.888,1.888,0,0,1,13.338,30.013Z" transform="translate(0.734 2.805)" fill="#d32d2d"/>
        <path id="Path_97" data-name="Path 97" d="M29.123,30.013a1.888,1.888,0,1,1-1.888-1.888,1.888,1.888,0,0,1,1.888,1.888Z" transform="translate(2.607 2.805)" fill="#d32d2d"/>
        <path id="Path_98" data-name="Path 98" d="M36.081,9.865a.462.462,0,0,0-.409-.33L10.052,7.057a.789.789,0,0,1-.59-.37A8.01,8.01,0,0,0,8.5,5.225c-.606-.739-1.746-.716-3.839-.732A1.146,1.146,0,0,0,3.382,5.6,1.124,1.124,0,0,0,4.609,6.711a10.451,10.451,0,0,1,2.045.149c.37.11.669.716.779,1.243a.029.029,0,0,0,.008.024c.016.094.157.8.157.81l3.146,16.644a6.117,6.117,0,0,0,1.141,2.808,3.139,3.139,0,0,0,2.588,1.274H33.084a1.118,1.118,0,0,0,1.133-1.054,1.1,1.1,0,0,0-1.1-1.148H14.457a.914.914,0,0,1-.653-.22,3.53,3.53,0,0,1-.9-2.045l-.338-1.864a.043.043,0,0,1,.031-.047l21.844-3.7a.46.46,0,0,0,.385-.409l1.259-9.109A.449.449,0,0,0,36.081,9.865Z" transform="translate(0 0)" fill="#d32d2d"/>
      </g>
      <path id="Icon_ionic-ios-call" data-name="Icon ionic-ios-call" d="M36.255,30.113a27.474,27.474,0,0,0-5.739-3.84c-1.72-.826-2.35-.809-3.568.068-1.013.732-1.669,1.414-2.836,1.158s-3.466-1.993-5.7-4.215-3.968-4.53-4.215-5.7.434-1.822,1.158-2.836c.877-1.218.9-1.848.068-3.568a26.931,26.931,0,0,0-3.84-5.739c-1.252-1.252-1.533-.979-2.222-.732A12.647,12.647,0,0,0,7.329,5.794a6.139,6.139,0,0,0-2.444,2.58c-.485,1.047-1.047,3,1.814,8.089a45.138,45.138,0,0,0,7.936,10.584h0l.009.009.009.009h0A45.314,45.314,0,0,0,25.237,35c5.092,2.861,7.042,2.3,8.089,1.814a6.035,6.035,0,0,0,2.58-2.444,12.647,12.647,0,0,0,1.081-2.035C37.235,31.646,37.516,31.365,36.255,30.113Z" transform="translate(390.345 1397.349)" fill="#d32d2d"/>
      <path id="Icon_awesome-history" data-name="Icon awesome-history" d="M33.017,16.759A16.228,16.228,0,0,1,6.606,29.424a1.569,1.569,0,0,1-.12-2.33l.737-.737a1.573,1.573,0,0,1,2.087-.13,12.04,12.04,0,1,0-.769-18.21l3.321,3.321a1.047,1.047,0,0,1-.74,1.787H1.609A1.047,1.047,0,0,1,.563,12.079V2.567a1.047,1.047,0,0,1,1.787-.74L5.58,5.057a16.227,16.227,0,0,1,27.437,11.7ZM21.18,21.914l.643-.826a1.57,1.57,0,0,0-.275-2.2l-2.663-2.071V9.985a1.57,1.57,0,0,0-1.57-1.57H16.266a1.57,1.57,0,0,0-1.57,1.57v8.876l4.28,3.329a1.57,1.57,0,0,0,2.2-.275Z" transform="translate(590.006 1398.21)" fill="#d32d2d"/>
      <path id="Icon_awesome-shoe-prints" data-name="Icon awesome-shoe-prints" d="M10.5,8.748h1.75v-7H10.5a3.5,3.5,0,0,0,0,7ZM0,22.745a3.5,3.5,0,0,0,3.5,3.5h1.75v-7H3.5A3.5,3.5,0,0,0,0,22.745Zm18.451-7a11.182,11.182,0,0,0-5.726,1.75A8.356,8.356,0,0,1,7,19.246v7l3.145.873a22.344,22.344,0,0,0,4.391.823A19.02,19.02,0,0,0,19.87,27.6c5.986-1.286,8.124-4.133,8.124-6.606,0-3.5-4.6-5.249-9.543-5.249ZM26.868.393A19,19,0,0,0,21.533.054a22.383,22.383,0,0,0-4.391.822L14,1.75v7a8.357,8.357,0,0,1,5.726,1.75,11.182,11.182,0,0,0,5.726,1.75c4.94,0,9.543-1.75,9.543-5.249,0-2.472-2.138-5.32-8.124-6.605Z" transform="translate(590.6 1472.401)" fill="#d32d2d"/>
      <path id="Icon_material-autorenew" data-name="Icon material-autorenew" d="M17.937,8.96v4.476L23.9,7.468,17.937,1.5V5.976A11.916,11.916,0,0,0,7.85,24.269l2.178-2.178a8.759,8.759,0,0,1-1.044-4.178A8.96,8.96,0,0,1,17.937,8.96Zm10.086,2.6-2.178,2.178a8.938,8.938,0,0,1-7.908,13.13V22.389l-5.968,5.968,5.968,5.968V29.849A11.916,11.916,0,0,0,28.023,11.557Z" transform="translate(225.104 1537.06) rotate(90)" fill="#d32d2d"/>
    </g>
  </g>
</svg>
