<svg xmlns="http://www.w3.org/2000/svg" xmlns:xlink="http://www.w3.org/1999/xlink" width="537" height="268" viewBox="0 0 537 268">
  <defs>
    <linearGradient id="linear-gradient" x2="1.02" y2="1.01" gradientUnits="objectBoundingBox">
      <stop offset="0" stop-color="#3023ae"/>
      <stop offset="1" stop-color="#9013fe"/>
    </linearGradient>
  </defs>
  <g id="Group_31" data-name="Group 31" transform="translate(-138 -1344)">
    <g id="Group_28" data-name="Group 28">
      <g id="Rectangle_145" data-name="Rectangle 145" transform="translate(138 1344)" fill="none" stroke="#30363d" stroke-width="1">
        <rect width="537" height="268" rx="5" stroke="none"/>
        <rect x="0.5" y="0.5" width="536" height="267" rx="4.5" fill="none"/>
      </g>
    </g>
    <g id="Group_30" data-name="Group 30" transform="translate(0 -4)">
      <g id="Group_7" data-name="Group 7" transform="translate(540 -1106)">
        <path id="Shape" d="M31.443,34H2.557A2.565,2.565,0,0,1,0,31.443V2.557A2.566,2.566,0,0,1,2.557,0H31.443a2.569,2.569,0,0,1,2.543,2.557v4.25a.616.616,0,1,1-1.232,0V2.557a1.332,1.332,0,0,0-1.325-1.325H17.616V4.384a4.06,4.06,0,0,1,2.508-.276,3.779,3.779,0,0,1-.8,7.473H19.3a3.73,3.73,0,0,1-1.633-.379l-.05,5.181h4.891a1.259,1.259,0,0,1,1.063.594,1.281,1.281,0,0,1,.05,1.247,2.484,2.484,0,0,0-.269,1.126,2.546,2.546,0,1,0,4.826-1.13A1.257,1.257,0,0,1,29.3,16.384h3.471V12.353a.616.616,0,0,1,1.232,0v19.09A2.563,2.563,0,0,1,31.443,34ZM1.232,17.63V31.443a1.337,1.337,0,0,0,.394.94,1.321,1.321,0,0,0,.933.384H16.384V28.333a3.988,3.988,0,0,1-2.89.57,3.782,3.782,0,0,1,.707-7.495h.008a3.7,3.7,0,0,1,2.125.669l.042-4.466H10.349a1.3,1.3,0,0,1-1.1-.634,1.219,1.219,0,0,1,0-1.218,2.492,2.492,0,0,0,.319-1.222,2.536,2.536,0,0,0-2.294-2.556c-.084-.008-.17-.013-.254-.013a2.55,2.55,0,0,0-2.5,2.065,2.509,2.509,0,0,0,.259,1.7,1.276,1.276,0,0,1,0,1.268,1.245,1.245,0,0,1-1.066.63Zm15.14,9.443a1.258,1.258,0,0,1,1.257,1.26v4.42H31.443a1.331,1.331,0,0,0,1.324-1.325V17.616H29.3a4.065,4.065,0,0,1,.3,2.525,3.784,3.784,0,0,1-7.484-.79,3.7,3.7,0,0,1,.4-1.682l-4.891-.046v4.455a1.253,1.253,0,0,1-.672,1.115,1.28,1.28,0,0,1-.585.142,1.264,1.264,0,0,1-.729-.23,2.547,2.547,0,1,0,0,4.2,1.252,1.252,0,0,1,.734-.232ZM2.529,1.232A1.329,1.329,0,0,0,1.2,2.575V16.387H3.68a4.073,4.073,0,0,1-.354-2.574,3.788,3.788,0,0,1,3.709-3.054,3.7,3.7,0,0,1,.379.019,3.767,3.767,0,0,1,3.407,3.782,3.717,3.717,0,0,1-.482,1.825h6.046V11.213a1.242,1.242,0,0,1,.588-1.062,1.27,1.27,0,0,1,.674-.193,1.286,1.286,0,0,1,.566.132,2.538,2.538,0,1,0-.005-4.579A1.271,1.271,0,0,1,16.37,4.384V1.232Z" transform="translate(51 2641)" fill="url(#linear-gradient)"/>
        <rect id="Rectangle_4" data-name="Rectangle 4" width="46" height="46" transform="translate(45 2635)" fill="none"/>
      </g>
    </g>
    <g id="_1" data-name="1" transform="translate(190.521 1391.643)">
      <path id="Path" d="M3.437,11.776a3.167,3.167,0,0,0,2.98-1.947A3.255,3.255,0,0,0,4.5,5.664,1.889,1.889,0,1,1,5.9,2.171a1.981,1.981,0,0,1,1.218,2.51A.637.637,0,1,0,8.3,5.155,3.213,3.213,0,0,0,6.942,1.276L7.1.867A.635.635,0,0,0,6.727.045.643.643,0,0,0,5.9.4L5.737.81A3.209,3.209,0,0,0,2.083,2.684,3.255,3.255,0,0,0,4,6.854a1.886,1.886,0,1,1-2.609.983A.639.639,0,0,0,.2,7.362a3.217,3.217,0,0,0,1.362,3.879l-.214.535A.639.639,0,0,0,1.7,12.6a.654.654,0,0,0,.237.046.643.643,0,0,0,.593-.383l.214-.535a3.381,3.381,0,0,0,.69.046Z" transform="translate(6.334 20.227)" fill="url(#linear-gradient)"/>
      <path id="Shape-2" data-name="Shape" d="M36.5,36.72H.639a.643.643,0,0,1-.544-.305.636.636,0,0,1,0-.667.643.643,0,0,1,.544-.306H5.347a10.227,10.227,0,0,1,7.485-18.847v-2.7H8.2a.639.639,0,0,1-.485-1.052L18.49.215a.65.65,0,0,1,.968,0L30.229,12.823a.639.639,0,0,1-.486,1.052H25.119v5.194h6.537a1.183,1.183,0,0,1,1.182,1.182v2.092a1.177,1.177,0,0,1,1.148,1.178V25.6a1.177,1.177,0,0,1,1.148,1.178V29a1.184,1.184,0,0,1-.7,1.075v2.084a1.175,1.175,0,0,1,1.067,1.17v2.115h1a.639.639,0,0,1,0,1.278ZM10.274,17.614h0a8.917,8.917,0,1,0,.02,17.833h.115a8.917,8.917,0,1,0-.134-17.833ZM30.967,33.45v2l3.27,0V33.421h-.727a1.09,1.09,0,0,1-.242.027h-2.3Zm-7.872,0v2l6.6,0v-2Zm-7.868,1.979v.019l.034-.019h6.56v-2H20.532A.635.635,0,0,1,19.9,32.8a.608.608,0,0,1,.115-.359.631.631,0,0,1,.539-.306h8.074V30.192H21.959a.64.64,0,0,1-.639-.639.628.628,0,0,1,0-.146.635.635,0,0,1,.624-.52h7.378V26.922H22.341a.64.64,0,0,1-.639-.639.118.118,0,0,0,0-.019.635.635,0,0,1,.635-.635H28.19V23.638H21.8a.636.636,0,0,1-.623-.513.656.656,0,0,1,0-.149.64.64,0,0,1,.639-.639h5.24V20.347h-6.8a.639.639,0,1,1,0-1.278h3.588V12.035a.639.639,0,1,1,1.274,0V12.6h3.243L18.976,1.606,9.585,12.59h3.244v-.562a.639.639,0,0,1,1.278,0V17a10.232,10.232,0,0,1,1.155,18.429ZM29.9,30.179V32.13h3.263V30.179Zm.662-3.27v1.968H33.24a1.3,1.3,0,0,1,.248.027h.383v-2.02h-.792a1.307,1.307,0,0,1-.249.027Zm-1.1-3.27v1.991h3.259V23.613h-.793a1.058,1.058,0,0,1-.236.027H29.464Zm-1.133-3.293v1.993h3.244V20.347Z" transform="translate(0.301 -0.003)" fill="url(#linear-gradient)"/>
      <path id="Path-2" data-name="Path" d="M.639,0A.639.639,0,0,0,0,.639V6.5a.639.639,0,0,0,1.274,0V.62A.635.635,0,0,0,.639,0Z" transform="translate(18.638 8.031)" fill="url(#linear-gradient)"/>
    </g>
    <g id="_2" data-name="2" transform="translate(192.14 1463.422)">
      <path id="Path-3" data-name="Path" d="M2.868,8.934A1.419,1.419,0,0,1,1.384,7.6.694.694,0,0,0,0,7.6a2.761,2.761,0,0,0,2.178,2.641v.322a.69.69,0,1,0,1.381,0v-.322A2.761,2.761,0,0,0,5.736,7.6,2.8,2.8,0,0,0,2.868,4.861,1.419,1.419,0,0,1,1.384,3.524a1.492,1.492,0,0,1,2.966,0,.694.694,0,0,0,1.384,0A2.757,2.757,0,0,0,3.558.883V.69a.69.69,0,1,0-1.381,0V.9A2.757,2.757,0,0,0,0,3.541,2.8,2.8,0,0,0,2.868,6.259,1.419,1.419,0,0,1,4.352,7.6,1.419,1.419,0,0,1,2.868,8.934Z" transform="translate(14.382 2.855)" fill="url(#linear-gradient)"/>
      <path id="Path-4" data-name="Path" d="M.684,7.088l-.09.146A.69.69,0,0,0,.817,8.2a.669.669,0,0,0,.365.107.694.694,0,0,0,.587-.326l.09-.141a2.452,2.452,0,0,0,1.2.06A2.315,2.315,0,0,0,4.581,6.865a2.289,2.289,0,0,0,.262-1.826,2.542,2.542,0,0,0-1.119-1.5A.986.986,0,1,1,4.758,1.879a1.05,1.05,0,0,1,.429,1.415.69.69,0,0,0,1.147.716,2.392,2.392,0,0,0-.322-2.873l.043-.069A.693.693,0,0,0,4.881.336L4.834.409a2.388,2.388,0,0,0-2.718.969A2.431,2.431,0,0,0,2.973,4.7a1.153,1.153,0,0,1,.514.677.934.934,0,0,1-.1.738.918.918,0,0,1-.617.429,1.162,1.162,0,0,1-.857-.163,1.05,1.05,0,0,1-.429-1.415.686.686,0,0,0-.219-.952.694.694,0,0,0-.956.219A2.392,2.392,0,0,0,.684,7.088Z" transform="translate(23.777 11.518)" fill="url(#linear-gradient)"/>
      <path id="Shape-3" data-name="Shape" d="M33.174,41.155H.722a.694.694,0,0,1,0-1.384H5.01V34.026a.7.7,0,0,1,.694-.691H9.086V29.22a.7.7,0,0,1,.691-.694h1.435v-2.89a.7.7,0,0,1,.694-.694h1.449a10.108,10.108,0,0,0-2.89-3.121,7.057,7.057,0,1,1-1.95-13.08V8.424a8.424,8.424,0,1,1,16.848,0v.317a7.061,7.061,0,1,1-1.916,13.08,10.019,10.019,0,0,0-2.89,3.121h1.449a.7.7,0,0,1,.694.694v2.889h1.437a.7.7,0,0,1,.69.694v4.116h3.365a.7.7,0,0,1,.694.691v5.744h4.287a.694.694,0,0,1,0,1.384ZM6.394,34.725v5.046H27.52V34.725H24.138a.7.7,0,0,1-.694-.7V29.911H10.471V33.34h9.268a.694.694,0,0,1,0,1.384Zm6.2-8.4v2.2h8.72v-2.2Zm-.909-5.355A13.807,13.807,0,0,1,15,24.959h1.286V16.814a8.528,8.528,0,0,1-2.173-.476,7.032,7.032,0,0,1-2.405,4.634Zm8.137-4.651a8.51,8.51,0,0,1-2.174.476v8.145h1.286a14.121,14.121,0,0,1,3.292-3.987A7.034,7.034,0,0,1,19.825,16.321Zm7.021-6.376a5.624,5.624,0,0,0-1.658.25,8.353,8.353,0,0,1-1.419,3.151l-.043.06c-.163.217-.322.41-.48.592l-.095.1c-.185.2-.341.356-.493.493l-.141.129a5.382,5.382,0,0,1-.511.429l-.171.129c-.189.135-.386.257-.553.36l-.116.078a5.681,5.681,0,1,0,8.681-4.905,5.624,5.624,0,0,0-3-.868Zm-19.793.01a5.675,5.675,0,1,0,5.694,5.774l-.111-.077a6.634,6.634,0,0,1-.562-.364l-.167-.125-.138-.114c-.129-.107-.253-.208-.372-.315l-.137-.125c-.154-.139-.307-.293-.5-.5l-.09-.1a7.159,7.159,0,0,1-.484-.6.579.579,0,0,1-.043-.056,8.36,8.36,0,0,1-1.419-3.151,5.667,5.667,0,0,0-1.673-.253Zm9.9-8.57A7.059,7.059,0,0,0,9.922,8.428a6.737,6.737,0,0,0,.1,1.145,7.057,7.057,0,0,0,1.257,3,6.36,6.36,0,0,0,.489.6l.043.047a7.5,7.5,0,0,0,.6.523,7,7,0,0,0,7.8.908,7.227,7.227,0,0,0,1.342-.9,6.611,6.611,0,0,0,.558-.536l.047-.051a6.926,6.926,0,0,0,.484-.587,7.118,7.118,0,0,0,1.252-3A6.735,6.735,0,0,0,24,8.425a7.059,7.059,0,0,0-7.039-7.039Z" transform="translate(0.293 0)" fill="url(#linear-gradient)"/>
      <path id="Path-5" data-name="Path" d="M6.315,7.013l-.1-.137a2.392,2.392,0,0,0,.176-2.889A2.431,2.431,0,0,0,3,3.468.986.986,0,1,1,1.883,1.86a1.153,1.153,0,0,1,.822-.188.913.913,0,0,1,.639.381.7.7,0,0,0,1.136-.81A2.3,2.3,0,0,0,2.9.282,2.529,2.529,0,0,0,1.719.411L1.668.338a.694.694,0,1,0-1.136.793L.575,1.2A2.392,2.392,0,0,0,.4,4.081,2.426,2.426,0,0,0,3.79,4.6.986.986,0,1,1,4.909,6.211a1.166,1.166,0,0,1-.823.206.939.939,0,0,1-.63-.381.694.694,0,0,0-1.145.781,2.31,2.31,0,0,0,1.574.973,2.418,2.418,0,0,0,.352,0,2.546,2.546,0,0,0,.857-.146l.095.141a.7.7,0,0,0,.57.3.673.673,0,0,0,.394-.124A.694.694,0,0,0,6.315,7.013Z" transform="translate(3.934 11.618)" fill="url(#linear-gradient)"/>
    </g>
    <g id="_3" data-name="3" transform="translate(193.237 1531.611)">
      <path id="Shape-4" data-name="Shape" d="M15.589,22.151h-.033A14.718,14.718,0,0,1,.877,7.917H.516a.563.563,0,0,1,0-1.122H4.483a5.737,5.737,0,1,1,11.272.026l14.87.028.028.007a.563.563,0,0,1,0,1.122h-.358A14.717,14.717,0,0,1,15.589,22.151Zm6.065-6.981a23.934,23.934,0,0,1-5.515.754v5.041h-.018l.018.007v-.007C18.348,20.651,20.357,18.538,21.654,15.17Zm-12.145.011c1.279,3.376,3.288,5.488,5.513,5.8V15.924l-.018,0a23.942,23.942,0,0,1-5.5-.746ZM2.575,11.408h0a13.656,13.656,0,0,0,9.007,9A13.409,13.409,0,0,1,8.2,14.783a13.4,13.4,0,0,1-5.628-3.376Zm26,.014a13.438,13.438,0,0,1-5.63,3.376,13.41,13.41,0,0,1-3.352,5.6,13.659,13.659,0,0,0,8.981-8.979ZM16.139,7.971V14.8h-.018l.018.008V14.8a22.784,22.784,0,0,0,5.917-.894,22.663,22.663,0,0,0,.938-5.939Zm-7.974,0h0v.014a22.657,22.657,0,0,0,.9,5.924,22.773,22.773,0,0,0,5.953.895V7.986H8.166V7.972Zm15.914,0a23.921,23.921,0,0,1-.751,5.523c3.377-1.276,5.492-3.285,5.8-5.513H24.078ZM2,7.96a5.44,5.44,0,0,0,1.8,3.142,12.3,12.3,0,0,0,4,2.371A23.917,23.917,0,0,1,7.05,7.986ZM11.478,4.1a1.92,1.92,0,0,1,1.746,2.718h1.39a4.618,4.618,0,1,0-8.988-.034H7.588a1.9,1.9,0,0,1-.523-.721A2,2,0,0,1,6.944,5.1l-.137-.055A.56.56,0,1,1,7.217,4l.13.051A1.944,1.944,0,0,1,9.6,3.372a.562.562,0,0,1-.4,1.052.855.855,0,0,0-1.082.547.93.93,0,0,0,0,.692.722.722,0,0,0,1.028.4.954.954,0,0,0,.465-.512A1.919,1.919,0,0,1,11.478,4.1Zm-.055,1.263a.8.8,0,0,0-.779.6,2.069,2.069,0,0,1-.621.848h1.942a.992.992,0,0,0,.164-.271v.008a.8.8,0,0,0-.708-1.188Z" transform="translate(0.571 12.411)" fill="url(#linear-gradient)"/>
      <path id="Shape-5" data-name="Shape" d="M5.67,11.387a5.8,5.8,0,1,1,.028,0ZM5.678,1.029a4.619,4.619,0,1,0,4.2,2.7,4.606,4.606,0,0,0-4.2-2.7Z" transform="translate(4.702)" fill="url(#linear-gradient)"/>
      <path id="Path-6" data-name="Path" d="M2.8,4.022a.946.946,0,0,1,.693-.043.743.743,0,0,1,.454.4.754.754,0,0,1,0,.606.971.971,0,0,1-1.18.538.754.754,0,0,1-.454-.4.56.56,0,1,0-1.018.465,1.865,1.865,0,0,0,1.118,1,2.064,2.064,0,0,0,.642.1,2.023,2.023,0,0,0,.328-.032l.061.13a.556.556,0,0,0,.509.325.538.538,0,0,0,.235-.05.559.559,0,0,0,.273-.743L4.4,6.184a1.959,1.959,0,0,0,.581-.776,1.847,1.847,0,0,0,0-1.5,1.872,1.872,0,0,0-1.121-1A2.035,2.035,0,0,0,2.345,3,.851.851,0,0,1,1.2,2.644a.855.855,0,0,1,.48-1.082h0a.851.851,0,0,1,1.148.361.563.563,0,0,0,1.021-.469A1.938,1.938,0,0,0,1.757.392L1.714.3A.563.563,0,0,0,.693.766L.722.824A1.941,1.941,0,0,0,.166,3.109,1.974,1.974,0,0,0,2.8,4.022Z" transform="translate(7.826 2.134)" fill="url(#linear-gradient)"/>
      <path id="Shape-6" data-name="Shape" d="M6.449,12.914a6.454,6.454,0,1,1,.031,0Zm0-11.785a5.337,5.337,0,1,0,4.7,2.805,5.337,5.337,0,0,0-4.7-2.805Z" transform="translate(16.238 4.868)" fill="url(#linear-gradient)"/>
      <path id="Path-7" data-name="Path" d="M.594,5.312a.53.53,0,0,0,.264-.068l.195-.1a2.212,2.212,0,0,0,1.62.722A2.028,2.028,0,0,0,4.64,4.318,2.255,2.255,0,0,0,4.429,2.66a1.158,1.158,0,0,1-.109-.837.909.909,0,0,1,1.2-.653,1.133,1.133,0,0,1,.642.552A1.05,1.05,0,0,1,5.8,3.165a.556.556,0,0,0-.226.758.563.563,0,0,0,.761.227,2.133,2.133,0,0,0,1-2.428l.119-.065A.563.563,0,1,0,6.923.668L6.8.737a2.262,2.262,0,0,0-.94-.624A2.035,2.035,0,0,0,3.217,1.556a2.262,2.262,0,0,0,.209,1.653,1.148,1.148,0,0,1,.109.841.935.935,0,0,1-.454.6,1.05,1.05,0,0,1-1.407-.5,1.148,1.148,0,0,1-.109-.841.935.935,0,0,1,.472-.6.559.559,0,0,0-.53-.984A2.017,2.017,0,0,0,.5,3.017a2.242,2.242,0,0,0,0,1.126l-.2.109A.563.563,0,0,0,.593,5.313Z" transform="translate(18.787 8.389)" fill="url(#linear-gradient)"/>
    </g>
    <g id="Group_6" data-name="Group 6" transform="translate(348.3 -1046)">
      <path id="Shape-7" data-name="Shape" d="M28.711,31.825H3.544a.579.579,0,0,1,0-1.154H13.8V21.153H1.73A1.732,1.732,0,0,1,0,19.423V1.733A1.736,1.736,0,0,1,1.73,0H7.3a.579.579,0,0,1,0,1.154H1.73a.579.579,0,0,0-.575.578v17.69a.579.579,0,0,0,.168.407A.572.572,0,0,0,1.73,20H30.766a.576.576,0,0,0,.575-.575V1.736a.581.581,0,0,0-.575-.579H16.455A.579.579,0,0,1,16.46,0H30.766a1.735,1.735,0,0,1,1.729,1.729v17.69a1.731,1.731,0,0,1-1.729,1.73H18.7v9.518H28.711a.579.579,0,0,1,0,1.154ZM14.951,21.153v9.518h2.593V21.153Z" transform="translate(48.753 2444.675)" fill="url(#linear-gradient)"/>
      <path id="Path-8" data-name="Path" d="M.535,1.154H3.6A.579.579,0,0,0,3.6,0H.535a.579.579,0,0,0,0,1.154Z" transform="translate(58.583 2444.674)" fill="url(#linear-gradient)"/>
      <path id="Shape-8" data-name="Shape" d="M12.743,10.276A2.264,2.264,0,0,1,10.512,8.4L4.395,5.822a2.272,2.272,0,1,1,.112-1.2L10.623,7.2a2.268,2.268,0,0,1,2.011-1.46h.109A2.282,2.282,0,0,1,14.776,7l6.293-5a2.265,2.265,0,0,1,2.18-2h.07A2.265,2.265,0,1,1,21.3,3.3l-6.307,5a2.256,2.256,0,0,1-2.2,1.973Zm0-3.388a1.12,1.12,0,1,0,1.12,1.121,1.12,1.12,0,0,0-1.12-1.121ZM2.27,6.13h0a1.127,1.127,0,1,0-1.1-.913,1.127,1.127,0,0,0,1.1.913ZM23.334,1.175a1.117,1.117,0,1,0,1.117,1.117,1.117,1.117,0,0,0-1.117-1.117Z" transform="translate(52.837 2448.77)" fill="url(#linear-gradient)"/>
      <path id="Path-9" data-name="Path" d="M2.606,0H.575a.576.576,0,0,0,0,1.151H6.668A.576.576,0,0,0,6.668,0Z" transform="translate(71.195 2461.213)" fill="url(#linear-gradient)"/>
      <path id="Path-10" data-name="Path" d="M6.238,0H.575a.576.576,0,0,0,0,1.151h7.68A.576.576,0,1,0,8.256,0Z" transform="translate(52.839 2461.213)" fill="url(#linear-gradient)"/>
      <path id="Path-11" data-name="Path" d="M.575,0a.576.576,0,0,0,0,1.151H4.123A.576.576,0,0,0,4.123,0Z" transform="translate(64.087 2461.213)" fill="url(#linear-gradient)"/>
    </g>
    <g id="Group_5" data-name="Group 5" transform="translate(6765.6 1888)">
      <path id="Shape-9" data-name="Shape" d="M3.2,6.737H3.03A2.735,2.735,0,0,1,.605,5,5.44,5.44,0,0,1,0,2.491V1.713a.641.641,0,0,1,.091-.338A3.957,3.957,0,0,1,3.084,0,4.377,4.377,0,0,1,5.142.527C5.627.786,6.2,1.21,6.2,1.762V2.47a5.471,5.471,0,0,1-.589,2.52A2.731,2.731,0,0,1,3.2,6.737Zm-.107-1.32h.086c.482,0,.913-.354,1.281-1.053A4.13,4.13,0,0,0,4.876,2.47V1.927a2.893,2.893,0,0,0-1.8-.63H3.1a3.024,3.024,0,0,0-1.787.659v.51a4.128,4.128,0,0,0,.448,1.906c.371.7.794,1.043,1.292,1.043Z" transform="translate(-6355.369 -423)" fill="url(#linear-gradient)"/>
      <path id="Path-12" data-name="Path" d="M7.424,0a2.931,2.931,0,0,0-.733.095.655.655,0,1,0,.325,1.264,1.98,1.98,0,0,1,.412-.054,1.647,1.647,0,1,1-1.367.745.655.655,0,0,0-.193-.9.646.646,0,0,0-.9.193,2.828,2.828,0,0,0-.412.943H.6a.655.655,0,0,0,0,1.3H4.551A2.935,2.935,0,0,0,7.4,5.863h0A2.928,2.928,0,0,0,7.424.008Z" transform="translate(-6347.487 -400.978)" fill="url(#linear-gradient)"/>
      <path id="Path-13" data-name="Path" d="M8.742,0A3.545,3.545,0,0,0,5.275,2.886H2.394a.65.65,0,0,0-.461.193.642.642,0,0,0-.189.461V4.718H.6a.655.655,0,0,0,0,1.3H2.4a.65.65,0,0,0,.461-.193.626.626,0,0,0,.189-.461V4.216H5.28a3.491,3.491,0,0,0,.173.605.661.661,0,1,0,1.235-.469,2.157,2.157,0,0,1-.165-.8A2.231,2.231,0,0,1,8.746,1.313a2.058,2.058,0,0,1,1.581.646,2.2,2.2,0,0,1,.659,1.577,2.227,2.227,0,0,1-3.1,2.058.655.655,0,0,0-.5,1.206,3.528,3.528,0,0,0,1.371.276h0A3.541,3.541,0,0,0,8.758,0Z" transform="translate(-6344.753 -409.352)" fill="url(#linear-gradient)"/>
      <path id="Path-14" data-name="Path" d="M.655,5.76H3.483a.655.655,0,0,0,.65-.655V3.541H6.217a2.816,2.816,0,0,0,.766,1.371A2.849,2.849,0,0,0,9,5.735H9A2.868,2.868,0,1,0,8.975,0a.65.65,0,0,0-.65.65.659.659,0,0,0,.692.671,1.538,1.538,0,1,1-.963.317A.656.656,0,1,0,7.229.618a2.832,2.832,0,0,0-1.013,1.6H3.479a.65.65,0,0,0-.638.679V4.45H.65A.659.659,0,0,0,0,5.109a.65.65,0,0,0,.655.65Z" transform="translate(-6346.834 -422.547)" fill="url(#linear-gradient)"/>
      <path id="Path-15" data-name="Path" d="M5.277,5.941A.655.655,0,0,0,4.421,5.6a2.433,2.433,0,0,1-.873.181,2.227,2.227,0,0,1-1.573-.65,2.2,2.2,0,0,1-.659-1.577,2.231,2.231,0,0,1,3.8-1.589,2.2,2.2,0,0,1,.655,1.577,2.277,2.277,0,0,1-.14.8.658.658,0,0,0,1.235.457,3.339,3.339,0,0,0,.14-.6H9.233V5.34a.655.655,0,0,0,.659.646H11.7a.655.655,0,0,0,0-1.3H10.559V3.524a.65.65,0,0,0-.193-.461.823.823,0,0,0-.473-.189H7.01a3.536,3.536,0,1,0-3.475,4.2h0A3.594,3.594,0,0,0,4.952,6.8.65.65,0,0,0,5.277,5.941Z" transform="translate(-6372 -409.27)" fill="url(#linear-gradient)"/>
      <path id="Path-16" data-name="Path" d="M2.56,5.739h0A2.882,2.882,0,0,0,5.335,3.524H7.426V5.076a.65.65,0,0,0,.65.65H10.9a.655.655,0,1,0,0-1.3H8.739V2.861a.655.655,0,0,0-.659-.667H5.343A2.812,2.812,0,0,0,4.322.6a.655.655,0,0,0-.8,1.029,1.544,1.544,0,0,1,.6,1.235,1.56,1.56,0,1,1-1.56-1.552A.656.656,0,1,0,2.556,0a2.882,2.882,0,0,0,0,5.727Z" transform="translate(-6369.25 -422.473)" fill="url(#linear-gradient)"/>
      <path id="Path-17" data-name="Path" d="M9.737,3.579a.655.655,0,0,0,0-1.3H5.788a2.923,2.923,0,0,0-.412-.943A.651.651,0,0,0,4.3,2.059,1.626,1.626,0,0,1,2.935,4.575,1.647,1.647,0,0,1,1.289,2.953,1.622,1.622,0,0,1,2.935,1.306a1.046,1.046,0,0,1,.412.049A.655.655,0,1,0,3.672.091,2.552,2.552,0,0,0,2.927,0a2.932,2.932,0,0,0,.008,5.863h0A2.939,2.939,0,0,0,5.784,3.579Z" transform="translate(-6367.291 -400.93)" fill="url(#linear-gradient)"/>
      <path id="Shape-10" data-name="Shape" d="M5.592,23.856a.655.655,0,0,1,0-1.309H8.625L8.6,12.627h-2a.593.593,0,0,1-.435-.19.668.668,0,0,1-.194-.461L5.95,4.068V3.9H5.126a2.582,2.582,0,0,1-2.5,1.944,2.643,2.643,0,0,1-1-.2.655.655,0,0,1,.5-1.207A1.28,1.28,0,0,0,3.907,3.253a1.284,1.284,0,0,0-2.565,0,1.362,1.362,0,0,0,.09.465A.66.66,0,1,1,.2,4.192,2.689,2.689,0,0,1,0,3.269,2.585,2.585,0,0,1,5.089,2.6H6.171A4.019,4.019,0,0,1,9.918,0h5.739a3.97,3.97,0,0,1,2.829,1.174,4.037,4.037,0,0,1,.9,1.379h1.392A2.6,2.6,0,0,1,23.274.614h.042a2.581,2.581,0,0,1,2.408,3.512.661.661,0,1,1-1.235-.47A1.241,1.241,0,0,0,24.58,3.2a1.281,1.281,0,1,0-2.561,0,1.242,1.242,0,0,0,.35.906,1.267,1.267,0,0,0,.9.375h.013a1.217,1.217,0,0,0,.483-.1.653.653,0,1,1,.515,1.2,2.521,2.521,0,0,1-1,.206,2.589,2.589,0,0,1-2.5-1.927H19.7v8.081a.633.633,0,0,1-.189.461.66.66,0,0,1-.461.194H17.078l.025,9.914h3.348a.651.651,0,0,1,.649.69.661.661,0,0,1-.65.654H5.645Zm3.6-19.551a.659.659,0,0,1,.653.6v7.056L9.873,22.52h2.289l-.025-8.8a.663.663,0,1,1,1.326,0l.033,8.8h2.3l-.029-10.573V4.891a.655.655,0,0,1,1.305,0V9.453h1.259V4.035A2.729,2.729,0,0,0,15.61,1.314H9.893a2.74,2.74,0,0,0-2.47,1.614.675.675,0,0,1,.082.3.651.651,0,0,1-.309.556,2.129,2.129,0,0,0,0,.268V9.47H8.539V4.908a.658.658,0,0,1,.652-.6ZM7.217,10.782v.535H8.539v-.535Zm9.86-.025v.535H18.4v-.535H17.078Z" transform="translate(-6365.188 -415.882)" fill="url(#linear-gradient)"/>
    </g>
    <g id="Group_4" data-name="Group 4" transform="translate(6761.601 1963)">
      <rect id="Rectangle_1" data-name="Rectangle 1" width="40" height="40" transform="translate(-6368 -436)" fill="none"/>
      <g id="security" transform="translate(-6360.226 -434)">
        <path id="Shape-11" data-name="Shape" d="M21.977,35.075H1.743A1.75,1.75,0,0,1,0,33.333V16.248a1.739,1.739,0,0,1,1.677-1.735v-4.33a10.184,10.184,0,0,1,20.367,0v4.33a1.74,1.74,0,0,1,1.677,1.735V33.333A1.75,1.75,0,0,1,21.977,35.075ZM1.743,15.667a.587.587,0,0,0-.581.581V33.333a.587.587,0,0,0,.581.581H21.977a.586.586,0,0,0,.581-.581V16.248a.586.586,0,0,0-.581-.581ZM11.86,3.4a6.891,6.891,0,0,1,6.883,6.883V14.5H20.88V10.183a9.021,9.021,0,1,0-18.042,0V14.5H4.977v-4.22A6.891,6.891,0,0,1,11.86,3.4Zm0,1.162a5.728,5.728,0,0,0-5.722,5.722v4.221H17.582v-4.22A5.728,5.728,0,0,0,11.86,4.563Z" transform="translate(0.225)" fill="url(#linear-gradient)"/>
        <path id="Shape-12" data-name="Shape" d="M9.693,14.73H.578A.578.578,0,0,1,.021,14L1.87,6.8a4.183,4.183,0,1,1,6.53,0L10.251,14a.577.577,0,0,1-.558.731ZM5.147,1.163a3.006,3.006,0,0,0-2.114.862,3.038,3.038,0,0,0-.089,4.227.583.583,0,0,1,.128.541l-1.74,6.771H8.95L7.211,6.793a.583.583,0,0,1,.139-.541,3.037,3.037,0,0,0-.089-4.227,3,3,0,0,0-2.114-.862Z" transform="translate(6.949 17.098)" fill="url(#linear-gradient)"/>
      </g>
    </g>
    <g id="Group_8" data-name="Group 8" transform="translate(538.3 -1312.5)">
      <g id="community" transform="translate(48.793 2702.019)">
        <path id="Shape-13" data-name="Shape" d="M16.867,35.927c-.162,0-.325-.008-.482-.017s-.316-.016-.472-.016h-.229c-.311-.026-.565-.052-.8-.083l-.154-.023a14.487,14.487,0,0,1-1.948-.4H12.73l-.21-.06A15.388,15.388,0,0,1,1.507,20.593v-.259L.9,19.309a6.328,6.328,0,0,1-.172-6.2,6,6,0,0,1,4.836-3.3h.375a15.185,15.185,0,0,1,9.9-4.517c.326-.021.677-.041,1.037-.041a15.865,15.865,0,0,1,2.061.142l.187.03c.3.047.565.092.8.138l.349.079c.207.048.42.1.629.153l.116.027.21.06a15.379,15.379,0,0,1,2.1.79A6.459,6.459,0,0,1,24.04,3.3,5.957,5.957,0,0,1,28.865.022C29.051.008,29.24,0,29.427,0s.376.008.562.022A5.993,5.993,0,0,1,34.858,3.3a6.371,6.371,0,0,1-.172,6.214l-3.409,5.749A15.378,15.378,0,0,1,21.216,35.329l-.21.06h-.053a15.216,15.216,0,0,1-1.943.4l-.158.023c-.234.03-.488.056-.8.083H17.82a9.056,9.056,0,0,1-.953.032Zm-5.884-7.592a19.492,19.492,0,0,0,2.273,5.993H13.3a14.845,14.845,0,0,0,1.76.341h.023l.124.017h.008a5.229,5.229,0,0,0,.707.065l.087.015H16.3V28.335Zm6.484-.023v6.4h.39c.242-.017.5-.042.779-.074h.123c.268-.033.547-.077.828-.131v.015c.3-.059.6-.132.888-.217a19.405,19.405,0,0,0,2.285-5.993h-5.3Zm-12.5,0h0a14.192,14.192,0,0,0,6.656,5.465,23.192,23.192,0,0,1-1.832-5.465H4.964Zm18.991,0h0a23.413,23.413,0,0,1-1.832,5.461,14.2,14.2,0,0,0,6.648-5.461H23.955Zm.775-7.135a37.894,37.894,0,0,1-.547,5.963H29.46a14.153,14.153,0,0,0,1.591-5.963H24.73Zm-7.277,0h0V27.14H23a36.236,36.236,0,0,0,.566-5.963H17.452Zm-7.2-.03-.074.176a36.739,36.739,0,0,0,.566,5.817H16.3V21.148H10.253ZM2.811,22.519h0A14.025,14.025,0,0,0,4.279,27.14H9.553a37.828,37.828,0,0,1-.468-3.974l-1.311,2.21a1.88,1.88,0,0,1-1.621.933H6.137a2.008,2.008,0,0,1-.5-.064A1.888,1.888,0,0,1,4.5,25.376ZM5.669,10.986a4.8,4.8,0,0,0-3.9,2.644A5.24,5.24,0,0,0,1.9,18.72l2.248,3.794L5.5,24.8a.749.749,0,0,0,1.255,0L9,21.024l1.367-2.3a5.6,5.6,0,0,0,.262-.514c.022-.048.045-.1.064-.146a4.387,4.387,0,0,0,.161-.446c.03-.1.057-.2.082-.3a.216.216,0,0,0,.026-.125,5.337,5.337,0,0,0-.086-2.588,5.015,5.015,0,0,0-.236-.667l-.053-.12a5.283,5.283,0,0,0-.587-.97l-.172-.218A4.744,4.744,0,0,0,6.6,10.986Zm18.514,3.06h0a37.952,37.952,0,0,1,.547,5.967h6.323a14.251,14.251,0,0,0-.663-3.746l-.131.064-.086.041-.15.049-.083.027a.288.288,0,0,1-.165.033H29.7l-.015.019a1.923,1.923,0,0,1-1.873-.918L26.9,14.046Zm-6.742-.015h0l.011,5.977h6.109a36.422,36.422,0,0,0-.577-5.977Zm-5.506,0,.023.071c.024.073.051.161.071.236.006.021.013.042.02.062a.438.438,0,0,1,.032.14l.044.2.045.224a.464.464,0,0,1,.026.188l.034.236v1.041a.589.589,0,0,0,.006.071.28.28,0,0,1-.006.138.423.423,0,0,0-.022.141v.064c-.009.087-.022.168-.031.222s-.017.094-.027.148l-.01.051c-.014.075-.032.162-.049.228-.007.029-.014.055-.021.082s-.017.066-.027.109c-.017.071-.038.143-.068.233l-.056.18-.09.244c-.012.028-.02.047-.03.074l-.037.091c-.029.068-.059.133-.09.2l-.03.065a1.4,1.4,0,0,1-.063.131l.011.015c-.066.138-.14.271-.21.393l-.416.7H16.3V14.027h-4.36ZM29.453,1.217c-.079,0-.159.006-.236.011s-.156.011-.232.011a4.793,4.793,0,0,0-3.9,2.622,5.238,5.238,0,0,0-.427,3.7,2.97,2.97,0,0,0,.09.3l.02.055c.035.1.075.211.119.319.012.03.025.058.038.086s.023.05.033.075c.069.151.154.329.259.51l3.6,6.068a.73.73,0,0,0,1.258,0l.659-1.124L33.678,8.9A5.188,5.188,0,0,0,33.82,3.88a4.79,4.79,0,0,0-3.9-2.641,3.262,3.262,0,0,0-.467-.022Zm-7.327,6.2a23.36,23.36,0,0,1,1.832,5.464h2.248L24.213,9.51a6.227,6.227,0,0,1-.621-1.416,14.445,14.445,0,0,0-1.465-.678ZM15.92,6.431a14.239,14.239,0,0,0-2.663.434,18.854,18.854,0,0,0-2.157,5.5l.086.12.045.071c.074.117.136.219.195.322h4.846V6.431Zm1.532-.015h0v6.446h5.3A19.472,19.472,0,0,0,20.47,6.869l-.07-.018c-.128-.037-.268-.067-.4-.1l-.143-.031-.318-.071c-.234-.044-.471-.078-.7-.111h-.008l-.154-.026c-.432-.056-.86-.081-1.221-.1ZM11.62,7.4h0A13.975,13.975,0,0,0,7.49,9.956h.026a4.85,4.85,0,0,1,.57.157l.067.019c.168.063.362.138.544.218l.086.041c.143.071.33.167.506.273l.075.049a5.53,5.53,0,0,1,.49.341c.12.094.217.175.307.255A21.218,21.218,0,0,1,11.619,7.4h0Z" transform="translate(0.207)" fill="url(#linear-gradient)"/>
        <path id="Shape-14" data-name="Shape" d="M2.023,4.045A2.023,2.023,0,1,1,4.045,2.023,2.023,2.023,0,0,1,2.023,4.045Zm0-2.873a.854.854,0,1,0,.858.85.854.854,0,0,0-.858-.85Z" transform="translate(27.633 1.716)" fill="url(#linear-gradient)"/>
        <path id="Path-18" data-name="Path" d="M5.18,0H2.139A2.142,2.142,0,0,0,0,2.15V3.24a.585.585,0,1,0,1.169,0V2.15a.974.974,0,0,1,.97-.97H5.18a.974.974,0,0,1,.97.97V3.24a.584.584,0,1,0,1.169,0V2.15A2.142,2.142,0,0,0,5.18,0Z" transform="translate(25.997 6.09)" fill="url(#linear-gradient)"/>
        <path id="Shape-15" data-name="Shape" d="M2.023,4.045A2.023,2.023,0,1,1,4.045,2.023,2.023,2.023,0,0,1,2.023,4.045Zm0-2.873a.85.85,0,1,0,.85.85.85.85,0,0,0-.85-.85Z" transform="translate(4.321 11.514)" fill="url(#linear-gradient)"/>
        <path id="Path-19" data-name="Path" d="M.585,3.832a.584.584,0,0,0,.584-.6V2.142a.974.974,0,0,1,.974-.97H5.18a.97.97,0,0,1,.97.97V3.229a.584.584,0,1,0,1.169,0V2.142A2.142,2.142,0,0,0,5.18,0H2.143A2.142,2.142,0,0,0,0,2.142V3.229a.584.584,0,0,0,.584.6Z" transform="translate(2.684 15.874)" fill="url(#linear-gradient)"/>
      </g>
      <rect id="Rectangle_5" data-name="Rectangle 5" width="46" height="46" transform="translate(44 2697)" fill="none"/>
    </g>
    <g id="Group_9" data-name="Group 9" transform="translate(541.3 -1311)">
      <g id="api" transform="translate(49.726 2771.59)">
        <path id="Path-20" data-name="Path" d="M20.757,19.837l-2.239-3.4a1.237,1.237,0,0,1-.2-.825,12.453,12.453,0,0,0,.111-1.637A13.98,13.98,0,0,0,.485.575.692.692,0,0,0,.9,1.895a12.313,12.313,0,0,1,2.685-.482A12.5,12.5,0,0,1,13.07,4.77a12.639,12.639,0,0,1,4,9.2,12.083,12.083,0,0,1-.095,1.46,2.6,2.6,0,0,0,.412,1.761l2.239,3.4a.313.313,0,0,1,0,.33.318.318,0,0,1-.285.173h-.474a1.237,1.237,0,0,0-1.237,1.237v1.39l-1.2.73a1.649,1.649,0,0,0-.573,2.206.68.68,0,0,0,.186.206l.553.412v.5a3.592,3.592,0,0,1-3.588,3.592h-4.6a.689.689,0,0,0-.7.7v6.144H3.256a.689.689,0,1,0,0,1.377H8.411A.689.689,0,0,0,9.1,38.9V32.757h3.909a4.973,4.973,0,0,0,4.948-4.969v-.825a.693.693,0,0,0-.252-.569l-.676-.515a.264.264,0,0,1,.124-.256l1.513-.924a.693.693,0,0,0,.33-.59V22.46h.338a1.7,1.7,0,0,0,1.423-2.639Z" transform="translate(12.5 0.41)" fill="url(#linear-gradient)"/>
        <path id="Shape-16" data-name="Shape" d="M8.511,17.023a8.519,8.519,0,1,1,6.015-2.494,8.519,8.519,0,0,1-6.015,2.494Zm0-15.645a7.134,7.134,0,1,0,5.045,2.089A7.134,7.134,0,0,0,8.511,1.378Z" transform="translate(2.655 5.872)" fill="url(#linear-gradient)"/>
        <path id="Shape-17" data-name="Shape" d="M10.9,36.526a2.721,2.721,0,0,1-2.651-2.153H6.4a1.565,1.565,0,0,1-1.562-1.559V27.156A1.565,1.565,0,0,1,6.4,25.6h.049v-.524h-.26a.681.681,0,0,1-.658-.507L4.149,19.445a10.893,10.893,0,1,1,14.173-.594.535.535,0,0,1-.074.1c-.176.157-.37.319-.61.508L16.26,24.566a.692.692,0,0,1-.66.5h-.251V25.6h.05a1.568,1.568,0,0,1,1.554,1.559v5.658a1.569,1.569,0,0,1-1.554,1.55l-1.852.009a2.721,2.721,0,0,1-2.647,2.15ZM9.683,34.373a1.335,1.335,0,0,0,1.212.783v-.008a1.327,1.327,0,0,0,1.2-.775ZM6.215,31.989v.825A.181.181,0,0,0,6.4,33h9a.181.181,0,0,0,.181-.181V27.156a.181.181,0,0,0-.181-.181h-9a.181.181,0,0,0-.181.181v.755H13.09a.693.693,0,0,1,0,1.382H6.215v1.319h7.946a.688.688,0,1,1,0,1.377Zm1.608-6.944V25.6h6.14v-.553Zm3.07-23.663a9.513,9.513,0,0,0-5.725,17.11.686.686,0,0,1,.251.366L6.739,23.7h8.346l.825-3.118A10.9,10.9,0,0,1,10.9,21.82h-.013a11.031,11.031,0,0,1-2.259-.235.689.689,0,0,1,.288-1.348,9.687,9.687,0,0,0,1.984.206,9.543,9.543,0,0,0,5.687-1.913.327.327,0,0,0,.037-.037,9.513,9.513,0,0,0-5.73-17.111Z" transform="translate(0.271 3.475)" fill="url(#linear-gradient)"/>
      </g>
      <rect id="Rectangle_6" data-name="Rectangle 6" width="46" height="46" transform="translate(44 2769)" fill="none"/>
    </g>
  </g>
</svg>
