<svg xmlns="http://www.w3.org/2000/svg" width="536" height="550" viewBox="0 0 536 550">
  <g id="Group_22" data-name="Group 22" transform="translate(-691 -1347)">
    <g id="Rectangle_144" data-name="Rectangle 144" transform="translate(691 1347)" fill="none" stroke="#30363d" stroke-width="1">
      <rect width="536" height="550" rx="5" stroke="none"/>
      <rect x="0.5" y="0.5" width="535" height="549" rx="4.5" fill="none"/>
    </g>
    <path id="Icon_material-location-on" data-name="Icon material-location-on" d="M28.974,3A21.458,21.458,0,0,0,7.5,24.474c0,16.106,21.474,39.88,21.474,39.88S50.448,40.58,50.448,24.474A21.458,21.458,0,0,0,28.974,3Zm0,29.143a7.669,7.669,0,1,1,7.669-7.669A7.672,7.672,0,0,1,28.974,32.143Z" transform="translate(743.5 1744.022)" fill="#1241bf"/>
    <path id="Icon_map-university" data-name="Icon map-university" d="M40.08,32.032c-8.869,0-16.4,2.579-21.325,6.621v7.519H61.408V38.653C56.487,34.611,48.95,32.032,40.08,32.032Zm39.161-3.859L39.977,10.08.729,28.173l6.542,2.994v4.6c-1.641.34-1.645,1.2-1.645,2.221a2.743,2.743,0,0,0,.581,1.734l-2.244,4.8h8.006L9.743,39.724a2.64,2.64,0,0,0,.681-1.65c0-1.02-1.513-1.964-1.513-2.3V31.937l8.2,3.685V35.3c4.922-4.28,13.569-7,22.964-7s18.049,2.717,22.971,7v.326Z" transform="translate(930.92 1743.872)" fill="#1241bf"/>
    <path id="Icon_awesome-money-bill-wave-alt" data-name="Icon awesome-money-bill-wave-alt" d="M58.189,4.354a27.741,27.741,0,0,0-10.9-2.1c-11.538,0-23.075,5.84-34.614,5.84A28.422,28.422,0,0,1,3.991,6.8a3.2,3.2,0,0,0-.97-.152A2.981,2.981,0,0,0,0,9.633v29.72a2.979,2.979,0,0,0,1.765,2.76,27.725,27.725,0,0,0,10.9,2.1c11.538,0,23.076-5.841,34.615-5.841a28.422,28.422,0,0,1,8.679,1.285,3.2,3.2,0,0,0,.97.152,2.981,2.981,0,0,0,3.021-2.98V7.115A2.983,2.983,0,0,0,58.189,4.354ZM29.977,32.227c-4.14,0-7.494-4.027-7.494-8.993s3.356-8.993,7.494-8.993,7.494,4.026,7.494,8.993S34.114,32.227,29.977,32.227Z" transform="translate(751 1436.764)" fill="#1241bf"/>
    <path id="Icon_awesome-credit-card" data-name="Icon awesome-credit-card" d="M0,43.785A4.986,4.986,0,0,0,4.984,48.77H54.826a4.986,4.986,0,0,0,4.984-4.984V25.51H0Zm19.937-7.061a1.25,1.25,0,0,1,1.246-1.246H35.3a1.25,1.25,0,0,1,1.246,1.246v4.154A1.25,1.25,0,0,1,35.3,42.124H21.183a1.25,1.25,0,0,1-1.246-1.246Zm-13.291,0a1.25,1.25,0,0,1,1.246-1.246h7.476a1.25,1.25,0,0,1,1.246,1.246v4.154a1.25,1.25,0,0,1-1.246,1.246H7.892a1.25,1.25,0,0,1-1.246-1.246ZM59.81,7.234v4.984H0V7.234A4.986,4.986,0,0,1,4.984,2.25H54.826A4.986,4.986,0,0,1,59.81,7.234Z" transform="translate(941 1434.488)" fill="#1241bf"/>
    <path id="Icon_material-verified-user" data-name="Icon material-verified-user" d="M27.405,1.5,4.5,11.68V26.95c0,14.125,9.773,27.334,22.905,30.54,13.132-3.207,22.905-16.416,22.905-30.54V11.68Zm-5.09,40.721L12.135,32.04l3.588-3.589,6.592,6.566L39.087,18.246l3.588,3.614Z" transform="translate(1126.5 1429.079)" fill="#1241bf"/>
    <path id="Icon_awesome-fax" data-name="Icon awesome-fax" d="M7.494,14.989H3.747A3.748,3.748,0,0,0,0,18.736V56.207a3.748,3.748,0,0,0,3.747,3.747H7.494a3.748,3.748,0,0,0,3.747-3.747V18.736A3.748,3.748,0,0,0,7.494,14.989Zm48.713,3.747V9.046a3.749,3.749,0,0,0-1.1-2.65l-5.3-5.3A3.747,3.747,0,0,0,47.16,0H18.736a3.748,3.748,0,0,0-3.747,3.747v52.46a3.748,3.748,0,0,0,3.747,3.747H56.207a3.748,3.748,0,0,0,3.747-3.747V22.483A3.748,3.748,0,0,0,56.207,18.736ZM33.724,50.587a1.873,1.873,0,0,1-1.874,1.874H28.1a1.873,1.873,0,0,1-1.874-1.874V46.839A1.873,1.873,0,0,1,28.1,44.966h3.747a1.873,1.873,0,0,1,1.874,1.874Zm0-14.989a1.873,1.873,0,0,1-1.874,1.874H28.1A1.873,1.873,0,0,1,26.23,35.6V31.851A1.873,1.873,0,0,1,28.1,29.977h3.747a1.873,1.873,0,0,1,1.874,1.874ZM48.713,50.587a1.873,1.873,0,0,1-1.874,1.874H43.092a1.873,1.873,0,0,1-1.874-1.874V46.839a1.873,1.873,0,0,1,1.874-1.874h3.747a1.873,1.873,0,0,1,1.874,1.874Zm0-14.989a1.873,1.873,0,0,1-1.874,1.874H43.092A1.873,1.873,0,0,1,41.218,35.6V31.851a1.873,1.873,0,0,1,1.874-1.874h3.747a1.873,1.873,0,0,1,1.874,1.874Zm1.874-13.115H20.609V5.621H44.966V9.368a1.873,1.873,0,0,0,1.874,1.874h3.747Z" transform="translate(750.877 1592.023)" fill="#1241bf"/>
    <path id="Icon_ionic-md-mail" data-name="Icon ionic-md-mail" d="M56.365,5.625H7.946a5.713,5.713,0,0,0-5.7,5.7v35.6a5.713,5.713,0,0,0,5.7,5.7H56.365a5.713,5.713,0,0,0,5.7-5.7v-35.6A5.713,5.713,0,0,0,56.365,5.625Zm-.712,12.1-23.5,15.665L8.658,17.73v-5.7L32.155,27.7l23.5-15.665Z" transform="translate(938.75 1592.878)" fill="#1241bf"/>
    <path id="Icon_awesome-phone-alt" data-name="Icon awesome-phone-alt" d="M56.281,40.939,43.608,35.507a2.716,2.716,0,0,0-3.168.781l-5.612,6.857A41.941,41.941,0,0,1,14.778,23.1l6.857-5.612a2.709,2.709,0,0,0,.781-3.168L16.984,1.642A2.734,2.734,0,0,0,13.873.069L2.1,2.784A2.716,2.716,0,0,0,0,5.431a52.5,52.5,0,0,0,52.5,52.5,2.716,2.716,0,0,0,2.648-2.1l2.716-11.768a2.749,2.749,0,0,0-1.585-3.123Z" transform="translate(1118.877 1593.033)" fill="#1241bf"/>
    <path id="Icon_awesome-star" data-name="Icon awesome-star" d="M29.119,2.064,21.551,17.41,4.617,19.878a3.711,3.711,0,0,0-2.052,6.328L14.817,38.145l-2.9,16.864A3.707,3.707,0,0,0,17.3,58.915l15.149-7.963,15.149,7.963a3.71,3.71,0,0,0,5.378-3.906l-2.9-16.864L62.326,26.207a3.711,3.711,0,0,0-2.052-6.328L43.341,17.41,35.772,2.064a3.712,3.712,0,0,0-6.653,0Z" transform="translate(1121.558 1742.324)" fill="#1241bf"/>
  </g>
</svg>
