<svg xmlns="http://www.w3.org/2000/svg" width="537" height="268" viewBox="0 0 537 268">
  <g id="Group_31" data-name="Group 31" transform="translate(-138 -1344)">
    <g id="Group_28" data-name="Group 28">
      <g id="Rectangle_145" data-name="Rectangle 145" transform="translate(138 1344)" fill="none" stroke="#30363d" stroke-width="1">
        <rect width="537" height="268" rx="5" stroke="none"/>
        <rect x="0.5" y="0.5" width="536" height="267" rx="4.5" fill="none"/>
      </g>
    </g>
    <g id="Group_30" data-name="Group 30">
      <path id="Icon_awesome-home" data-name="Icon awesome-home" d="M24.527,12.42,8.4,25.7V40.04a1.4,1.4,0,0,0,1.4,1.4l9.8-.025a1.4,1.4,0,0,0,1.393-1.4V31.642a1.4,1.4,0,0,1,1.4-1.4h5.6a1.4,1.4,0,0,1,1.4,1.4v8.367a1.4,1.4,0,0,0,1.4,1.4l9.8.027a1.4,1.4,0,0,0,1.4-1.4V25.694L25.865,12.42A1.066,1.066,0,0,0,24.527,12.42ZM50,21.448,42.69,15.42V3.3a1.05,1.05,0,0,0-1.05-1.05h-4.9a1.05,1.05,0,0,0-1.05,1.05V9.655L27.86,3.211a4.2,4.2,0,0,0-5.336,0L.38,21.448a1.05,1.05,0,0,0-.14,1.478l2.231,2.712a1.05,1.05,0,0,0,1.479.143L24.527,8.833a1.066,1.066,0,0,1,1.338,0L46.443,25.781a1.05,1.05,0,0,0,1.478-.14l2.231-2.712A1.05,1.05,0,0,0,50,21.448Z" transform="translate(184.001 1467.353)" fill="#d68201"/>
      <g id="Icon_ionic-ios-chatbubbles" data-name="Icon ionic-ios-chatbubbles" transform="translate(191 1538.201)">
        <path id="Path_92" data-name="Path 92" d="M35.707,27.222A2.119,2.119,0,0,1,36,26.155a2.945,2.945,0,0,1,.184-.271,14.175,14.175,0,0,0,2.414-7.9c.026-8.066-6.78-14.609-15.2-14.609A15.091,15.091,0,0,0,8.5,15a14.058,14.058,0,0,0-.324,2.992A14.839,14.839,0,0,0,23.136,32.786a18.016,18.016,0,0,0,4.129-.674c.989-.271,1.968-.63,2.222-.726a2.313,2.313,0,0,1,.814-.149,2.274,2.274,0,0,1,.884.175l4.96,1.758a1.183,1.183,0,0,0,.341.087.7.7,0,0,0,.7-.7,1.124,1.124,0,0,0-.044-.236Z" transform="translate(-2.203 -3.375)" fill="#d68201"/>
        <path id="Path_93" data-name="Path 93" d="M27.038,31.186c-.315.087-.717.184-1.155.28a16.146,16.146,0,0,1-2.974.394A14.839,14.839,0,0,1,7.95,17.066a16.539,16.539,0,0,1,.131-1.872c.052-.376.114-.752.2-1.12.087-.394.192-.787.306-1.172l-.7.621a13.019,13.019,0,0,0-4.514,9.789,12.874,12.874,0,0,0,2.17,7.173c.2.306.315.542.28.7s-1.041,5.424-1.041,5.424a.7.7,0,0,0,.236.674.713.713,0,0,0,.446.157.627.627,0,0,0,.254-.052l4.908-1.933a1.367,1.367,0,0,1,1.05.017,14.723,14.723,0,0,0,5.31,1.05A13.739,13.739,0,0,0,27.493,31.7s.28-.385.6-.84C27.773,30.976,27.406,31.089,27.038,31.186Z" transform="translate(-3.375 -1.049)" fill="#d68201"/>
      </g>
      <path id="Icon_awesome-money-bill-alt" data-name="Icon awesome-money-bill-alt" d="M26.839,21.579h-1.22v-6.71a.61.61,0,0,0-.61-.61H23.973a1.827,1.827,0,0,0-1.015.307l-1.169.779a.61.61,0,0,0-.169.846l.677,1.015a.61.61,0,0,0,.846.169l.036-.024v4.227h-1.22a.61.61,0,0,0-.61.61v1.22a.61.61,0,0,0,.61.61h4.88a.61.61,0,0,0,.61-.61v-1.22A.61.61,0,0,0,26.839,21.579ZM46.358,4.5H2.44A2.44,2.44,0,0,0,0,6.94v24.4a2.44,2.44,0,0,0,2.44,2.44H46.358a2.44,2.44,0,0,0,2.44-2.44V6.94A2.44,2.44,0,0,0,46.358,4.5ZM3.66,30.119v-4.88a4.879,4.879,0,0,1,4.88,4.88Zm0-17.079V8.16H8.54A4.879,4.879,0,0,1,3.66,13.04ZM24.4,27.679c-4.043,0-7.32-3.824-7.32-8.54s3.277-8.54,7.32-8.54,7.32,3.823,7.32,8.54S28.44,27.679,24.4,27.679Zm20.739,2.44h-4.88a4.879,4.879,0,0,1,4.88-4.88Zm0-17.079a4.879,4.879,0,0,1-4.88-4.88h4.88Z" transform="translate(185.595 1395.861)" fill="#d68201"/>
      <path id="Icon_awesome-map-marked" data-name="Icon awesome-map-marked" d="M20.6,0a9.011,9.011,0,0,0-9.011,9.011c0,4.023,5.889,11.357,8.146,14.019a1.128,1.128,0,0,0,1.731,0c2.256-2.662,8.146-10,8.146-14.019A9.011,9.011,0,0,0,20.6,0ZM1.439,15.444A2.289,2.289,0,0,0,0,17.569v17.9a1.144,1.144,0,0,0,1.569,1.063l9.873-4.494V15.37a21.658,21.658,0,0,1-1.52-3.32ZM20.6,25.722a3.417,3.417,0,0,1-2.611-1.213c-1.406-1.659-2.9-3.549-4.254-5.487V32.038l13.731,4.577V19.023c-1.353,1.937-2.848,3.828-4.254,5.487A3.419,3.419,0,0,1,20.6,25.722Zm19.028-14.2L29.751,16.02v20.6l10-4a2.288,2.288,0,0,0,1.439-2.125v-17.9A1.144,1.144,0,0,0,39.624,11.525Z" transform="translate(390.598 1468.09)" fill="#d68201"/>
      <path id="Icon_awesome-heart" data-name="Icon awesome-heart" d="M37.9,4.759C33.4.931,26.723,1.619,22.6,5.874L20.985,7.538,19.37,5.874C15.255,1.619,8.566.931,4.074,4.759A11.77,11.77,0,0,0,3.263,21.8L19.124,38.178a2.57,2.57,0,0,0,3.713,0L38.7,21.8a11.763,11.763,0,0,0-.8-17.042Z" transform="translate(388.411 1534.388)" fill="#d68201"/>
      <path id="Icon_metro-feed3" data-name="Icon metro-feed3" d="M34.555,1.928H8.968a6.416,6.416,0,0,0-6.4,6.4V33.911a6.415,6.415,0,0,0,6.4,6.4H34.555a6.414,6.414,0,0,0,6.4-6.4V8.326a6.416,6.416,0,0,0-6.4-6.4ZM13.026,33.084a3.25,3.25,0,1,1,3.263-3.247A3.252,3.252,0,0,1,13.026,33.084Zm8.19.028A11.459,11.459,0,0,0,9.771,21.64V16.948A16.181,16.181,0,0,1,25.93,33.112Zm8.327,0A19.8,19.8,0,0,0,9.776,13.324V8.63A24.509,24.509,0,0,1,34.249,33.112Z" transform="translate(389.429 1397.086)" fill="#d68201"/>
      <path id="Icon_ionic-ios-settings" data-name="Icon ionic-ios-settings" d="M38.989,23.3a4.837,4.837,0,0,1,3.1-4.513,19.175,19.175,0,0,0-2.32-5.59,4.9,4.9,0,0,1-1.968.421A4.827,4.827,0,0,1,33.389,6.82a19.116,19.116,0,0,0-5.58-2.32,4.833,4.833,0,0,1-9.026,0,19.174,19.174,0,0,0-5.59,2.32,4.827,4.827,0,0,1-4.415,6.794,4.743,4.743,0,0,1-1.968-.421,19.6,19.6,0,0,0-2.31,5.6,4.836,4.836,0,0,1,.01,9.026,19.174,19.174,0,0,0,2.32,5.59A4.829,4.829,0,0,1,13.2,39.782a19.286,19.286,0,0,0,5.59,2.32,4.824,4.824,0,0,1,9.006,0,19.174,19.174,0,0,0,5.59-2.32,4.833,4.833,0,0,1,6.373-6.373,19.286,19.286,0,0,0,2.32-5.59A4.86,4.86,0,0,1,38.989,23.3Zm-15.6,7.822a7.832,7.832,0,1,1,7.832-7.832A7.83,7.83,0,0,1,23.384,31.118Z" transform="translate(583.5 1528.901)" fill="#d68201"/>
      <g id="Icon_ionic-ios-card" data-name="Icon ionic-ios-card" transform="translate(588 1472.401)">
        <path id="Path_94" data-name="Path 94" d="M41.441,9.549a2.808,2.808,0,0,0-2.8-2.8H5.049a2.808,2.808,0,0,0-2.8,2.8v4.2H41.441Z" transform="translate(-2.25 -6.75)" fill="#d68201"/>
        <path id="Path_95" data-name="Path 95" d="M2.25,29.747a2.808,2.808,0,0,0,2.8,2.8H38.642a2.808,2.808,0,0,0,2.8-2.8v-14H2.25Zm12.422-4.2H29.019a1.228,1.228,0,0,1,1.225,1.225h0A1.228,1.228,0,0,1,29.019,28H14.672a1.228,1.228,0,0,1-1.225-1.225h0A1.228,1.228,0,0,1,14.672,25.548Zm-6.3,0h1.05a1.228,1.228,0,0,1,1.225,1.225h0A1.228,1.228,0,0,1,9.423,28H8.374a1.228,1.228,0,0,1-1.225-1.225h0A1.228,1.228,0,0,1,8.374,25.548Z" transform="translate(-2.25 -4.553)" fill="#d68201"/>
      </g>
      <path id="Icon_awesome-user-alt" data-name="Icon awesome-user-alt" d="M22.395,25.194A12.6,12.6,0,1,0,9.8,12.6,12.6,12.6,0,0,0,22.395,25.194Zm11.2,2.8h-4.82a15.228,15.228,0,0,1-12.755,0H11.2A11.2,11.2,0,0,0,0,39.191v1.4a4.2,4.2,0,0,0,4.2,4.2H40.591a4.2,4.2,0,0,0,4.2-4.2v-1.4A11.2,11.2,0,0,0,33.592,27.994Z" transform="translate(585 1392.605)" fill="#d68201"/>
    </g>
  </g>
</svg>
