<svg xmlns="http://www.w3.org/2000/svg" width="537" height="268" viewBox="0 0 537 268">
  <g id="Group_31" data-name="Group 31" transform="translate(-138 -1344)">
    <g id="Group_28" data-name="Group 28">
      <g id="Rectangle_145" data-name="Rectangle 145" transform="translate(138 1344)" fill="none" stroke="#30363d" stroke-width="1">
        <rect width="537" height="268" rx="5" stroke="none"/>
        <rect x="0.5" y="0.5" width="536" height="267" rx="4.5" fill="none"/>
      </g>
      <path id="Icon_awesome-hubspot" data-name="Icon awesome-hubspot" d="M21.159,16.951a10.379,10.379,0,0,0-1.19,13.773l-3.95,3.968a3.261,3.261,0,0,0-1.118-.2,3.223,3.223,0,1,0,3.225,3.224,3.018,3.018,0,0,0-.152-.965l3.99-4.006a10.39,10.39,0,1,0,7.925-18.509V9.321A3.646,3.646,0,0,0,32.139,5.9a3.748,3.748,0,1,0-7.478,0,3.646,3.646,0,0,0,2.244,3.424V14.2A10.33,10.33,0,0,0,23.5,15.289c-2.2-1.669-9.378-6.834-13.48-9.96a4.173,4.173,0,0,0,.159-1.1A4.226,4.226,0,1,0,8.132,7.794ZM28.3,30.008A5.511,5.511,0,1,1,33.812,24.5,5.511,5.511,0,0,1,28.3,30.008Z" transform="translate(184.276 1395.052)" fill="#8d79ff"/>
      <path id="Icon_awesome-paint-brush" data-name="Icon awesome-paint-brush" d="M13.466,24.945a8.161,8.161,0,0,0-7.835,5.829,1.231,1.231,0,0,1-1.176.8c-.9,0-3.665-2.231-4.455-2.77,0,6.64,3.057,12.484,10.32,12.484,6.116,0,10.32-3.53,10.32-9.69a6.985,6.985,0,0,0-.077-.724ZM36.919,0a4.923,4.923,0,0,0-3.243,1.326c-16.482,14.724-18.2,15.07-18.2,19.4a7.464,7.464,0,0,0,.7,3.12l5.146,4.288a7.42,7.42,0,0,0,1.806.241c5.008,0,7.91-3.665,17.025-20.679A8.3,8.3,0,0,0,41.29,4,4.2,4.2,0,0,0,36.919,0Z" transform="translate(186 1531.001)" fill="#8d79ff"/>
      <path id="Icon_awesome-squarespace" data-name="Icon awesome-squarespace" d="M16.013,28.848a2.137,2.137,0,1,0,3.022,3.022l13.593-13.6a4.271,4.271,0,1,1,6.041,6.039L25.337,37.645a4.269,4.269,0,0,0,6.039,0h0L41.688,27.333A8.545,8.545,0,0,0,29.6,15.248ZM37.16,19.785a2.136,2.136,0,0,0-3.022,0l-13.6,13.593a4.271,4.271,0,0,1-6.039,0h0a2.136,2.136,0,0,0-3.019,0h0a2.136,2.136,0,0,0,0,3.022h0a8.547,8.547,0,0,0,12.085,0l13.6-13.6a2.136,2.136,0,0,0,0-3.022ZM14.492,27.337,28.086,13.744a2.136,2.136,0,1,0-3.008-3.022L11.485,24.313a4.271,4.271,0,0,1-6.041,0h0a4.271,4.271,0,0,1,0-6.041h0L18.773,4.938a4.271,4.271,0,0,0-6.041,0h0L2.417,15.253A8.545,8.545,0,0,0,14.492,27.337ZM6.95,22.8a2.136,2.136,0,0,0,3.008,0l13.6-13.6a4.271,4.271,0,0,1,6.041,0h0a2.137,2.137,0,0,0,3.022-3.022,8.542,8.542,0,0,0-12.085,0L6.95,19.783a2.136,2.136,0,0,0,0,3.022Z" transform="translate(383.936 1394.316)" fill="#8d79ff"/>
      <path id="Icon_awesome-wordpress-simple" data-name="Icon awesome-wordpress-simple" d="M21.547.563A20.985,20.985,0,1,0,42.533,21.548,20.985,20.985,0,0,0,21.547.563ZM2.679,21.546A18.738,18.738,0,0,1,4.313,13.87l9,24.657A18.888,18.888,0,0,1,2.679,21.546ZM21.547,40.417a18.8,18.8,0,0,1-5.33-.76L21.879,23.2l5.8,15.89a2.552,2.552,0,0,0,.135.262,18.888,18.888,0,0,1-6.263,1.067Zm2.6-27.719c1.133-.059,2.159-.177,2.159-.177a.781.781,0,1,0-.118-1.558s-3.054.245-5.026.245c-1.852,0-4.967-.245-4.967-.245a.781.781,0,1,0-.118,1.558s.964.118,1.98.177l2.936,8.07L16.86,33.139,9.991,12.705c1.133-.059,2.159-.177,2.159-.177a.781.781,0,1,0-.118-1.558s-3.054.245-5.026.245c-.356,0-.77,0-1.227-.025A18.869,18.869,0,0,1,34.291,7.628a2.392,2.392,0,0,0-.245-.017,3.265,3.265,0,0,0-3.164,3.346,8.831,8.831,0,0,0,1.852,4.415,9.9,9.9,0,0,1,1.558,5.2,22.656,22.656,0,0,1-1.437,6.1l-1.879,6.287L24.145,12.7Zm6.888,25.148L36.8,21.185a17.848,17.848,0,0,0,1.437-6.76,13.886,13.886,0,0,0-.128-1.938,18.871,18.871,0,0,1-7.074,25.359Z" transform="translate(390.438 1464.437)" fill="#8d79ff"/>
      <path id="Icon_material-tv" data-name="Icon material-tv" d="M39.655,4.5H5.316A3.827,3.827,0,0,0,1.5,8.316V31.207a3.827,3.827,0,0,0,3.816,3.816h9.539v3.816H30.116V35.023h9.539a3.81,3.81,0,0,0,3.8-3.816l.019-22.893A3.827,3.827,0,0,0,39.655,4.5Zm0,26.707H5.316V8.316H39.655Z" transform="translate(389.5 1530.031)" fill="#8d79ff"/>
      <path id="Icon_simple-googleanalytics" data-name="Icon simple-googleanalytics" d="M30.21,32.846H2.593A2.6,2.6,0,0,1,0,30.25V24.2a2.6,2.6,0,0,1,2.593-2.6h7.788V12.957a2.6,2.6,0,0,1,2.586-2.576h8.664V2.634A2.647,2.647,0,0,1,24.264,0h5.948a2.649,2.649,0,0,1,2.634,2.636V30.21A2.649,2.649,0,0,1,30.21,32.846Z" transform="translate(589 1399)" fill="#8d79ff"/>
      <path id="Icon_simple-marketo" data-name="Icon simple-marketo" d="M25.646,0V38.367l9.8-7.811V5.329ZM21.076,29.989l-7.882,3.445V3.335l7.882,2.336ZM2.577,29.1l6.042-1.6V8.293l-6-.969Z" transform="translate(587.423 1467)" fill="#8d79ff"/>
      <path id="Icon_simple-shopify" data-name="Icon simple-shopify" d="M23.818,37.369l11.246-2.432S31.006,7.5,30.973,7.305a.344.344,0,0,0-.329-.3c-.152,0-3.007-.211-3.007-.211S25.652,4.806,25.4,4.6a.6.6,0,0,0-.192-.115L23.779,37.369h.037ZM18.166,17.617a6.653,6.653,0,0,0-2.764-.661c-2.255,0-2.343,1.411-2.343,1.778,0,1.922,5.05,2.672,5.05,7.215A5.327,5.327,0,0,1,12.8,31.808a7.305,7.305,0,0,1-5.517-2.284l1.007-3.251a7.071,7.071,0,0,0,3.553,1.661,1.471,1.471,0,0,0,1.519-1.453c0-2.522-4.135-2.639-4.135-6.794C9.173,16.2,11.676,12.8,16.749,12.8a6.207,6.207,0,0,1,2.922.563L18.2,17.6l-.031.015ZM17.324,1.294a1.046,1.046,0,0,1,.631.21,8.018,8.018,0,0,0-3.908,6.221c-1.023.333-2.015.631-2.943.9.809-2.782,2.762-7.317,6.221-7.317Zm1.922,4.6V6.1c-1.175.361-2.466.754-3.731,1.153A6.463,6.463,0,0,1,18.76,2.616a9.168,9.168,0,0,1,.488,3.272Zm.84-3.481c1.082.115,1.778,1.346,2.226,2.736-.544.177-1.153.359-1.805.577V5.337a8.862,8.862,0,0,0-.423-2.916Zm4.666,2.013c-.031,0-.094.033-.121.033s-.45.117-1.113.327c-.659-1.922-1.832-3.693-3.908-3.693h-.179A2.564,2.564,0,0,0,17.472,0C12.632,0,10.319,6.042,9.59,9.11c-1.861.577-3.214.992-3.366,1.05-1.052.333-1.082.361-1.2,1.355C4.9,12.236,2.17,33.43,2.17,33.43L23.3,37.4Z" transform="translate(587.83 1533)" fill="#8d79ff"/>
      <g id="seo-search-symbol" transform="translate(186 1475)">
        <g id="Group_75" data-name="Group 75" transform="translate(0 0)">
          <g id="Group_74" data-name="Group 74">
            <path id="Path_70" data-name="Path 70" d="M4.347,30.4a8.444,8.444,0,0,1-3.674-.9L0,32.227a9.588,9.588,0,0,0,4.15.892c4.021,0,5.912-2.086,5.912-4.543,0-2.064-1.217-3.413-3.8-4.369-1.89-.718-2.717-1.122-2.717-2.064,0-.76.7-1.4,2.131-1.4a6.96,6.96,0,0,1,3.065.7l.74-2.673A8.974,8.974,0,0,0,5.738,18C2.283,18,.2,19.924.2,22.423c0,2.131,1.587,3.477,4.021,4.324,1.761.631,2.457,1.153,2.457,2.064C6.674,29.779,5.87,30.4,4.347,30.4Z" transform="translate(0 -17.153)" fill="#8d79ff"/>
            <path id="Path_71" data-name="Path 71" d="M25.947,30.258H19.926V26.781h5.39V24.086h-5.39V21.043h5.715V18.326H16.6v14.65h9.347Z" transform="translate(-4.297 -17.229)" fill="#8d79ff"/>
            <path id="Path_72" data-name="Path 72" d="M41.372,33.669a8.413,8.413,0,0,0,5.41-1.963L49.7,34.429a1.1,1.1,0,0,0,.345.841l4.282,4a1.122,1.122,0,0,0,1.517-1.627l-4.282-4a1.1,1.1,0,0,0-.841-.28l-2.88-2.687a8.441,8.441,0,1,0-6.45,3.015Zm0-14.672a6.223,6.223,0,1,1-6.223,6.223A6.223,6.223,0,0,1,41.372,19Z" transform="translate(-8.522 -16.809)" fill="#8d79ff"/>
          </g>
        </g>
      </g>
    </g>
  </g>
</svg>
