<svg xmlns="http://www.w3.org/2000/svg" width="5980" height="2300" viewBox="0 0 5980 2300">
  <g id="Group_57" data-name="Group 57" transform="translate(0 -3480)">
    <rect id="Rectangle_172" data-name="Rectangle 172" width="1310" height="260" rx="62" transform="translate(0 3480)" fill="rgba(134,134,134,0.1)"/>
    <rect id="Rectangle_188" data-name="Rectangle 188" width="2702" height="260" rx="62" transform="translate(1511 3480)" fill="rgba(134,134,134,0.1)"/>
    <rect id="Rectangle_190" data-name="Rectangle 190" width="1567" height="260" rx="62" transform="translate(4413 3480)" fill="rgba(134,134,134,0.1)"/>
    <rect id="Rectangle_184" data-name="Rectangle 184" width="1074" height="260" rx="62" transform="translate(0 3990)" fill="rgba(134,134,134,0.1)"/>
    <rect id="Rectangle_191" data-name="Rectangle 191" width="754" height="260" rx="62" transform="translate(1274 3990)" fill="rgba(134,134,134,0.1)"/>
    <rect id="Rectangle_192" data-name="Rectangle 192" width="2694" height="260" rx="62" transform="translate(2228 3990)" fill="rgba(134,134,134,0.1)"/>
    <rect id="Rectangle_193" data-name="Rectangle 193" width="858" height="260" rx="62" transform="translate(5122 3990)" fill="rgba(134,134,134,0.1)"/>
    <rect id="Rectangle_185" data-name="Rectangle 185" width="1923" height="260" rx="62" transform="translate(113 4500)" fill="rgba(134,134,134,0.1)"/>
    <rect id="Rectangle_194" data-name="Rectangle 194" width="1352" height="260" rx="62" transform="translate(2236 4500)" fill="rgba(134,134,134,0.1)"/>
    <rect id="Rectangle_195" data-name="Rectangle 195" width="926" height="260" rx="62" transform="translate(3788 4500)" fill="rgba(134,134,134,0.1)"/>
    <rect id="Rectangle_196" data-name="Rectangle 196" width="926" height="260" rx="62" transform="translate(4914 4500)" fill="rgba(134,134,134,0.1)"/>
    <rect id="Rectangle_186" data-name="Rectangle 186" width="467" height="260" rx="62" transform="translate(0 5010)" fill="rgba(134,134,134,0.1)"/>
    <rect id="Rectangle_197" data-name="Rectangle 197" width="1569" height="260" rx="62" transform="translate(667 5010)" fill="rgba(134,134,134,0.1)"/>
    <rect id="Rectangle_198" data-name="Rectangle 198" width="2401" height="260" rx="62" transform="translate(2505 5010)" fill="rgba(134,134,134,0.1)"/>
    <rect id="Rectangle_199" data-name="Rectangle 199" width="805" height="260" rx="62" transform="translate(5175 5010)" fill="rgba(134,134,134,0.1)"/>
    <rect id="Rectangle_187" data-name="Rectangle 187" width="1766" height="260" rx="62" transform="translate(0 5520)" fill="rgba(134,134,134,0.1)"/>
    <rect id="Rectangle_200" data-name="Rectangle 200" width="1908" height="260" rx="62" transform="translate(2028 5520)" fill="rgba(134,134,134,0.1)"/>
    <rect id="Rectangle_201" data-name="Rectangle 201" width="516" height="260" rx="62" transform="translate(4198 5520)" fill="rgba(134,134,134,0.1)"/>
    <rect id="Rectangle_202" data-name="Rectangle 202" width="938" height="260" rx="62" transform="translate(4906 5520)" fill="rgba(134,134,134,0.1)"/>
  </g>
</svg>
